<svg xmlns="http://www.w3.org/2000/svg" width="479.94" height="479.94"><path fill="none" stroke="#030000" stroke-width="20.792" stroke-linecap="round" stroke-miterlimit="10" d="M368.438 311.06c-5.104-65.428-59.813-116.93-126.551-116.93s-121.445 51.502-126.549 116.93"/><path fill="#030000" d="M259.069 455.734c-20.825-.494-41.123-6.285-58.757-16.765l-1.223-.771c-1.53-1.156-39.07-27.847-105.679-13.489-3.601.881-7.426-.162-9.978-2.72-2.552-2.556-3.428-6.221-2.285-9.567 1.143-3.345 4.123-5.836 7.776-6.502 72.423-15.608 116.184 12.526 122.409 16.67 45.596 25.051 73.036 8.67 74.158 7.997l.918-.483 73.138-36.902c22.852-10.598 27.953-17.438 28.768-18.789.716-3.372 0-5.685-.814-6.841-7.614-3.383-16.243-4.133-24.382-2.119l-76.404 30.158a10.721 10.721 0 0 1-3.978.771h-78.442c-5.633 0-10.201-4.315-10.201-9.636 0-5.321 4.567-9.635 10.201-9.635h62.223c9.588-1.254 12.547-3.759 12.955-4.626.409-.867-1.02-4.72-2.756-7.13-86.296-41.431-191.364.771-192.383 1.253-5.079 1.801-10.763-.465-12.936-5.16-2.172-4.694-.074-10.175 4.775-12.474 4.692-1.927 116.491-47.019 211.972 0 1.122.56 2.126 1.31 2.957 2.218 4.604 5.129 7.606 11.367 8.67 18.02l56.206-22.164 1.837-.578c4.997-.961 30.602-5.298 43.76 7.035 6.397 6.208 8.943 15.1 6.732 23.509-.61 7.42-8.466 18.789-39.682 33.243L296.2 446.871c-11.293 6.094-24.13 9.157-37.131 8.863zm0 0M323.188 115.015c.995-7.852 1.909-16.963.987-26.86-2.387-26.613-17.212-44.28-37.049-54.234-13.533-6.791-29.4-9.992-45.242-9.992-13.9 0-27.819 2.467-40.166 7.659-22.346 9.397-39.538 27.729-42.126 56.566h.001a62.571 62.571 0 0 0-.002 11.788 257.936 257.936 0 0 0 1.788 14.456 6.16 6.16 0 0 0-.917.154c-5.779 1.423-8.404 10.942-5.862 21.26 2.541 10.319 9.287 17.53 15.066 16.106l.012-.004c9.279 31.1 38.138 53.838 72.213 53.838 34.026 0 62.852-22.673 72.174-53.703 5.598.649 11.872-6.37 14.302-16.238 2.222-9.019.495-17.426-3.834-20.35-.182-.122-.577-.424-1.345-.446z"/><path fill="#FFF" d="M304.242 152.371a70.053 70.053 0 0 0 3.074-12.359c4.582-22.907 1.693-39.939-1.026-46.893a.096.096 0 0 1-.007-.018c-.821-2.579-1.936-4.652-3.428-6.02-1.086-.995-2.369-1.62-3.889-1.791a8.762 8.762 0 0 0-2.456.087c-27.546 4.914-74.253-13.955-88.687-20.209-2.796-1.211-4.382-1.95-4.382-1.95s-.311 2.125-1.315 5.197c-1.784 5.457-5.754 13.904-14.051 18.745-13.6 7.959-14.422 23.813-13.163 37.701.492 6.544.757 8.583 1.916 15.937.391 2.458.771 4.597 1.067 5.92 6.641 29.711 32.646 51.88 63.715 51.88 28.936 0 53.419-19.762 62.616-46.185v.007l.016-.049z"/><path fill="#030000" d="M220.291 116.049c0 6.684-5.14 12.338-11.31 12.338s-11.31-5.141-11.31-12.338c0-6.683 5.14-12.34 11.31-12.34s11.31 5.657 11.31 12.34M291.325 116.049c0 6.684-5.14 12.338-11.31 12.338-6.167 0-11.31-5.141-11.31-12.338 0-6.683 5.143-12.34 11.31-12.34 6.171 0 11.31 5.657 11.31 12.34"/><path fill="#FFF" d="M280.721 112.904c0 1.861-1.862 4.339-4.339 4.339-2.48 0-4.339-1.859-4.339-4.339 0-2.479 1.858-4.339 4.339-4.339 2.476.619 4.339 2.48 4.339 4.339"/><path fill="#231815" d="M267.834 158.655h-47.366c-2.315 0-3.999 1.807-3.684 3.804.966 5.455 3.908 10.306 8.138 13.962.527-5.458 5.074-9.712 10.546-9.712 3.637 0 6.805 1.799 8.683 4.558 1.994-2.759 5.162-4.558 8.682-4.558 5.473 0 10.02 4.255 10.546 9.713 4.229-3.656 7.173-8.507 8.139-13.963.316-1.997-1.37-3.804-3.684-3.804z"/><g fill="#E50012"><path d="M272.765 295.91l-16.998-74.231a2.152 2.152 0 0 0-2.151-1.721H234.25a2.153 2.153 0 0 0-2.152 1.721l-15.921 74.016a2.15 2.15 0 0 0 .86 2.151l24.959 19.149a2.151 2.151 0 0 0 2.582 0l.931-.765 1.006.765a2.151 2.151 0 0 0 2.582 0l23.022-18.935a2.148 2.148 0 0 0 .646-2.15zM228.871 216.73a2.152 2.152 0 0 0 1.721.861h4.15c.122.009.245.012.369 0H256.627a2.15 2.15 0 0 0 1.722-.861l6.67-9.037a2.15 2.15 0 0 0-.431-3.012l-1.291-.431h-38.299a2.15 2.15 0 1 0-1.72 3.442l5.593 9.038zM263.379 176.422c-.526-5.458-5.073-9.713-10.546-9.713-3.52 0-6.688 1.799-8.682 4.558-1.878-2.759-5.046-4.558-8.683-4.558-5.473 0-10.02 4.254-10.546 9.712 4.988 4.312 11.768 6.961 19.229 6.961 7.461.001 14.24-2.648 19.228-6.96z"/></g><path fill="#FFF" d="M209.905 112.534c0 1.861-1.862 4.339-4.339 4.339-2.481 0-4.339-1.859-4.339-4.339 0-2.479 1.858-4.339 4.339-4.339 2.476.618 4.339 2.48 4.339 4.339"/></svg>