<svg xmlns="http://www.w3.org/2000/svg" width="436.354" height="583.354"><switch><g><path stroke="#FFF" stroke-miterlimit="10" d="M.677 485.341v79.148c0 10.044 6.492 18.188 14.5 18.188h406c8.008 0 14.5-8.144 14.5-18.188v-79.148h-435z"/><path fill="none" stroke="#231815" stroke-width="1.353" stroke-miterlimit="10" d="M435.677 564.489c0 10.044-6.492 18.188-14.5 18.188h-406c-8.008 0-14.5-8.144-14.5-18.188V18.864C.677 8.819 7.169.676 15.177.676h406c8.008 0 14.5 8.143 14.5 18.188v545.625z"/><text transform="translate(38.005 440.34)"><tspan x="0" y="0" fill="#231815" font-family="'FZLTZHUNHJW--GB1-0'" font-size="24">打开手机抖</tspan><tspan x="120" y="0" fill="#231815" font-family="'FZLTZHUNHJW--GB1-0'" font-size="24" letter-spacing="6">音</tspan><tspan x="150" y="0" fill="#231815" font-family="'FZLTZHUNHJW--GB1-0'" font-size="24">APP</tspan><tspan x="204.75" y="0" fill="#231815" font-family="'FZLTZHUNHJW--GB1-0'" font-size="24" letter-spacing="6">,</tspan><tspan x="218.344" y="0" fill="#231815" font-family="'FZLTZHUNHJW--GB1-0'" font-size="24">扫码后关注我</tspan></text><text transform="translate(50.605 131.677)"><tspan x="0" y="0" fill="#50525A" font-family="'SourceHanSerifCN-Bold-GBpc-EUC-H'" font-size="22.6">品干</tspan><tspan x="45.2" y="0" fill="#50525A" font-family="'SourceHanSerifCN-Bold-GBpc-EUC-H'" font-size="22.6" letter-spacing="5">货,</tspan><tspan x="86.671" y="0" fill="#50525A" font-family="'SourceHanSerifCN-Bold-GBpc-EUC-H'" font-size="22.6">来我</tspan><tspan x="131.871" y="0" fill="#50525A" font-family="'SourceHanSerifCN-Bold-GBpc-EUC-H'" font-size="22.6" letter-spacing="5">家,</tspan><tspan x="173.343" y="0" fill="#50525A" font-family="'SourceHanSerifCN-Bold-GBpc-EUC-H'" font-size="22.6">我是干货分享</tspan><tspan x="308.939" y="0" fill="#50525A" font-family="'SourceHanSerifCN-Bold-GBpc-EUC-H'" font-size="22.6" letter-spacing="5">家</tspan><tspan x="337.189" y="0" fill="#50525A" font-family="'SourceHanSerifCN-Bold-GBpc-EUC-H'" font-size="22.6">!</tspan></text><text transform="translate(122.777 75.357)" fill="#030000" font-family="'SourceHanSerifCN-Bold-GBpc-EUC-H'" font-size="36" letter-spacing="2">干货分享家</text><g><path fill="#FEFEFE" d="M216.734 212.897c1.625-.345 3.479-.164 4.752.992 2.144 1.699 2.431 5.15.672 7.222-1.877 2.466-6.028 2.502-7.929.039-2.392-2.63-.956-7.396 2.505-8.253zm.402 2.812c-1.411.675-1.837 2.797-.583 3.834 1.208 1.308 3.617.526 3.931-1.19.5-1.802-1.71-3.576-3.348-2.644z"/><path fill="#101010" d="M166.975 209.314c16.764-13.715 39.208-20.105 60.692-17.511 9.802 1.148 19.409 4.066 28.158 8.64 3.949-4.296 9.49-7.03 15.269-7.737 5.69-.661 11.59.768 16.374 3.913 4.834 3.174 8.512 8.085 10.136 13.644 1.589 5.228 1.361 10.997-.683 16.068-2.029 5.281-5.999 9.734-10.896 12.531-4.958 2.783-10.896 3.831-16.491 2.754-8.007-1.34-15.118-6.991-18.296-14.451-.437-.995-.7-2.065-1.254-3.003-.843-.796-2.079-1.197-2.521-2.359.804.252 1.574.597 2.328.974-1.318-5.576-.479-11.515 1.987-16.658-3.089-1.794-6.497-3.003-9.87-4.162-19.132-6.525-40.921-4.737-58.734 4.816-3.561 1.709-6.746 4.077-10.043 6.223-1.629-1.834-3.818-3.017-6.156-3.682zm104.653-12.826c-5.659.643-11.025 3.66-14.438 8.234-2.494 3.288-3.866 7.332-4.201 11.426-.337 6.362 2.417 12.791 7.233 16.96 1.382 1.145 2.964 2.022 4.51 2.928 4.787 2.428 10.552 2.875 15.638 1.124 4.958-1.557 9.219-5.089 11.757-9.61 2.253-4.091 3.237-8.924 2.435-13.548-.878-5.396-3.885-10.463-8.374-13.619-4.144-3.053-9.447-4.453-14.56-3.895z"/><path fill="#101010" d="M218.206 201.69c2.146.182 4.351.007 6.433.633-2.044.842-4.3.22-6.436.213.003-.213.003-.636.003-.846zM205.583 202.892a68.587 68.587 0 0 1 6.479-.896l-.113.81c-1.923.195-3.832.671-5.769.643-.15-.138-.449-.419-.597-.557zM230.329 202.914c1.806.163 3.586.558 5.338 1.012.49.068.814.444 1.092.821-2.033-.121-4.095-.487-5.996-1.208-.111-.157-.324-.469-.434-.625zM176.184 215.409c7.161-5.15 15.232-9.066 23.78-11.284-.021.213-.061.644-.079.86-5.185 1.472-10.274 3.362-15.001 5.978-3.487 1.738-6.618 4.08-9.852 6.23.171-.718.508-1.386 1.152-1.784zM211.144 206.648c4.627-.565 9.305-.466 13.947-.096a61.921 61.921 0 0 1-.238 3.707c-2.587.096-5.164-.313-7.752-.177-1.766.028-3.529.288-5.295.202-.686-1.016-.438-2.445-.662-3.636zM204.313 207.704a75.16 75.16 0 0 1 3.33-.672 18.37 18.37 0 0 1 .654 3.817 53.997 53.997 0 0 1-3.281.479 36.381 36.381 0 0 1-.703-3.624zM232.003 207.736c1.176.17 2.335.465 3.462.846a64.663 64.663 0 0 1-.988 3.604c-1.063-.245-2.121-.494-3.185-.739.188-1.244.441-2.481.711-3.711zM238.787 209.545c1.145.313 2.261.718 3.345 1.201a22.434 22.434 0 0 1-1.485 3.465c-.978-.355-1.958-.704-2.939-1.045.252-1.236.632-2.445 1.079-3.621zM181.799 216.952c3.98-2.402 8.061-4.759 12.5-6.216a87.307 87.307 0 0 1 1.315 3.376c-2.093 1.052-4.286 1.891-6.362 2.979-1.88.917-3.625 2.072-5.459 3.063a33.344 33.344 0 0 1-1.994-3.202zM163.574 211.745c4.89-1.006 9.94 3.327 9.638 8.32.025 4.912-5.093 8.992-9.873 7.854-3.899-.729-6.853-4.603-6.554-8.551.143-3.721 3.142-6.997 6.789-7.623zm-.022 3.152c-3.461.857-4.897 5.623-2.506 8.252 1.902 2.463 6.053 2.427 7.929-.039 1.759-2.072 1.472-5.523-.672-7.222-1.271-1.154-3.127-1.335-4.751-.991zM204.562 215.328c1.202-.259 2.438-.675 3.668-.316-1.606 1.077-3.604 1.201-5.459 1.46.103-.9 1.109-.935 1.791-1.144zM238.216 217.261c1.418.516 2.847 1.013 4.197 1.695.479.156.675.622.799 1.07-1.724-.458-3.329-1.248-4.972-1.926a78.31 78.31 0 0 1-.024-.839z"/><path fill="#101010" d="M163.954 217.709c1.638-.932 3.849.842 3.348 2.644-.313 1.716-2.723 2.499-3.931 1.19-1.255-1.037-.828-3.159.583-3.834zM215.335 218.331c.97-.05 1.94-.088 2.91-.117a88.419 88.419 0 0 1-.103 2.41c-.91-.003-1.82 0-2.73.014-.027-.772-.052-1.54-.077-2.307zM176.236 221.149c.753-.899 1.784-1.503 2.744-2.157a32.05 32.05 0 0 1 2.171 3.081 33.862 33.862 0 0 1-2.69 1.973c-.796-.918-1.663-1.806-2.225-2.897zM226.732 219.013c.927.11 1.852.238 2.775.373-.1.761-.202 1.521-.306 2.282a45.457 45.457 0 0 1-2.864-.498c.129-.721.261-1.439.395-2.157zM201.211 221.007a24.214 24.214 0 0 1 2.9-.903c.149.736.302 1.472.448 2.211-.878.288-1.77.551-2.669.771-.224-.693-.452-1.386-.679-2.079zM234.431 223.139a54.71 54.71 0 0 1 .664-2.218c5.064 1.649 9.866 4.059 14.267 7.048.295.292.87.465.867.956-.327.562-.739 1.07-1.134 1.588-2.107-1.251-4.112-2.676-6.295-3.802-2.669-1.454-5.501-2.576-8.369-3.572zM136.904 282.051c-2.481-21.332 3.959-43.569 17.546-60.213.644 2.335 1.937 4.382 3.579 6.142-.16.636-.625 1.137-.981 1.674-11.135 15.538-15.879 35.462-13.019 54.355.814 5.868 2.523 11.561 4.563 17.109-2.068.939-4.162 1.845-6.337 2.509-2.639-6.939-4.601-14.176-5.351-21.576zM186.525 222.894c.789-.466 1.628-1.233 2.598-.782-1.493 1.201-3.103 2.324-4.926 2.964.385-1.076 1.444-1.581 2.328-2.182zM193.271 224.195c1.742-.839 3.504-1.635 5.313-2.31l.8 2.09c-1.692.796-3.409 1.535-5.118 2.282a49.406 49.406 0 0 1-.995-2.062zM213.127 224.444c.86-.025 1.72-.046 2.581-.061.014.774.028 1.553.035 2.332-.828.024-1.656.053-2.48.071-.047-.783-.096-1.56-.136-2.342zM218.125 224.291a42.391 42.391 0 0 1 10.168 1.041c-.11.732-.225 1.461-.331 2.193-3.256-.494-6.524-.896-9.819-1.006-.008-.743-.015-1.485-.018-2.228zM205.611 225.783c.842-.135 1.685-.27 2.534-.387.121.764.238 1.536.349 2.303-.839.146-1.674.298-2.516.434-.112-.786-.239-1.568-.367-2.35zM230.639 226.011c2.587.427 4.997 1.496 7.428 2.438-.313.704-.633 1.407-.957 2.104a91.86 91.86 0 0 0-6.848-2.41c.12-.714.245-1.421.377-2.132zM198.29 228.442c1.606-.657 3.22-1.319 4.912-1.73.11.689.658 1.429.394 2.114-1.386.722-2.903 1.141-4.35 1.728a230.07 230.07 0 0 1-.956-2.112zM172.619 235.17a53.385 53.385 0 0 1 7.684-7.688c-.078.366.107.825-.164 1.123-1.077 1.173-2.377 2.111-3.476 3.266-1.066 1.045-1.93 2.292-3.085 3.245-.32.022-.64.043-.959.054zM168.524 228.304a46.26 46.26 0 0 1 2.822 2.484c-2.214 2.797-4.574 5.498-6.383 8.59-.479.672-.789 1.575-1.532 1.998-1.116-.387-2.075-1.091-3.056-1.727 2.239-4.099 5.086-7.835 8.149-11.345zM193.787 230.741a15.78 15.78 0 0 1 2.438-1.112c.266.64.537 1.279.814 1.916-.64.43-1.283.864-1.987 1.176-.676-.441-.871-1.315-1.265-1.98zM215.953 230.283c.75-.01 1.503-.018 2.26-.024-.003.778-.01 1.553-.014 2.331-.743.003-1.485.011-2.228.011-.008-.772-.018-1.547-.018-2.318zM220.342 230.351c1.518.05 3.032.181 4.528.441-.106.764-.217 1.524-.334 2.285a48.24 48.24 0 0 0-4.173-.401c-.01-.776-.013-1.551-.021-2.325zM181.468 232.302c.746-.622 1.5-1.237 2.253-1.848.498.569.988 1.144 1.475 1.72a34.402 34.402 0 0 1-2.218 1.866c-.504-.58-1.009-1.156-1.51-1.738zM207.149 231.641a55.957 55.957 0 0 1 6.561-1.151c.078.764.178 1.524.295 2.282-2.154.288-4.283.707-6.408 1.141a80.602 80.602 0 0 1-.448-2.272zM243.482 233.951c.416-.611.832-1.219 1.251-1.827 2.144 1.407 4.173 2.982 6.113 4.656-.479.586-.96 1.18-1.432 1.773-1.933-1.592-3.937-3.088-5.932-4.602zM196.825 235.934c1.958-1.07 3.959-2.072 6.074-2.801.252.7.498 1.404.739 2.107-1.944.764-3.728 1.891-5.693 2.591-.64-.43-.797-1.243-1.12-1.897zM233.429 233.126c2.114.704 4.087 1.742 6.056 2.776-.271.675-.548 1.343-.821 2.012-2.047-.747-3.934-1.852-5.956-2.655.233-.715.475-1.422.721-2.133zM187.446 235.106c.728-.53 1.46-1.059 2.207-1.564.334.647 1.084 1.251 1.017 2.008-.53.526-1.155.941-1.745 1.393-.498-.608-.996-1.219-1.479-1.837zM179.474 234.278c.526.504 1.052 1.009 1.582 1.514a17.857 17.857 0 0 1-1.965 2.149 212.73 212.73 0 0 1-1.61-1.528 59.06 59.06 0 0 1 1.993-2.135zM185.577 236.744c.487.568.974 1.137 1.457 1.709-1.784 1.688-3.387 3.543-5.072 5.328-.593-.444-1.184-.885-1.78-1.319 1.603-2.086 3.5-3.905 5.395-5.718zM191.267 239.921c1.088-1.102 2.36-1.994 3.703-2.754.388.604.778 1.205 1.169 1.806a25.488 25.488 0 0 1-3.529 2.563c-.448-.541-.896-1.078-1.343-1.615z"/><path fill="#101010" d="M155.232 239.595c.469-.839.785-1.916 1.816-2.211-.373 1.713-1.425 3.146-2.182 4.695-.995 1.916-1.695 3.966-2.552 5.95-.143.494-.611.732-1.038.945.761-3.327 2.446-6.348 3.956-9.379zM175.622 238.528c.59.465 1.173.935 1.756 1.408-1.606 2.21-3.245 4.41-4.585 6.799-.7-.317-1.39-.658-2.072-1.017a48.473 48.473 0 0 1 4.901-7.19zM241.947 240.216c.451-.597.91-1.194 1.372-1.788 2.402 1.795 4.727 3.746 6.606 6.099-.536.48-1.069.967-1.599 1.454-2.018-2.036-4.111-4.002-6.379-5.765zM251.046 240.028l1.556-1.497a36.7 36.7 0 0 1 3.526 3.877c-.587.448-1.17.899-1.752 1.351-1.173-1.186-2.3-2.42-3.33-3.731zM260.656 242.129c.554-.441 1.112-.878 1.67-1.319 1.923 2.218 3.315 4.826 4.691 7.403-.693.345-1.386.683-2.082 1.02-1.241-2.481-2.804-4.766-4.279-7.104zM187.897 242.797c.579-.526 1.159-1.045 1.749-1.557.512.547 1.02 1.094 1.532 1.646-.568.515-1.144 1.023-1.724 1.528-.519-.54-1.041-1.077-1.557-1.617zM274.328 244.343a27.642 27.642 0 0 1 3.412-1.571c1.561 3.088 2.847 6.309 3.983 9.575a73.23 73.23 0 0 1-3.561 1.25 140.845 140.845 0 0 0-3.834-9.254zM178.788 244.3c.601.451 1.202.906 1.795 1.369a79.663 79.663 0 0 1-1.46 2.065c-.629-.423-1.254-.842-1.88-1.269.511-.726 1.027-1.447 1.545-2.165zM164.359 248.345c.199-.092.593-.281.789-.377-.348 1.368-.867 2.683-1.458 3.963-.185.529-.657.838-1.116 1.105.36-1.635.914-3.256 1.785-4.691zM182.275 249.809c.455-.65.917-1.297 1.379-1.94l1.831 1.379c-.455.587-.906 1.169-1.361 1.752-.616-.402-1.231-.797-1.849-1.191zM250.882 249.162c.594-.419 1.19-.839 1.788-1.258a22.818 22.818 0 0 1 2.569 3.842c-.679.355-1.357.703-2.044 1.041-.774-1.204-1.538-2.416-2.313-3.625zM271.165 248.053l.863.195c1.354 3.142 2.673 6.344 3.345 9.713-1.127-.341-1.165-1.66-1.531-2.583-.665-2.524-1.86-4.855-2.677-7.325zM175.906 248.668c.615.306 1.233.597 1.819.956.046.785-.441 1.493-.874 2.104-.746.206-1.45-.529-2.15-.76.398-.768.8-1.536 1.205-2.3zM258.405 249.659c.68-.323 1.358-.653 2.041-.977.397.757.796 1.518 1.187 2.282-.707.341-1.418.683-2.129 1.02-.369-.775-.739-1.546-1.099-2.325zM155.74 249.162c1.269.27 2.484.739 3.614 1.368-2.317 6.177-3.81 12.706-4.023 19.313-.046 1.059-.106 2.122-.16 3.185-1.258.043-2.517.05-3.774.032-.067-8.154 1.507-16.268 4.343-23.898zM260.646 254.078c.699-.313 1.403-.619 2.107-.928.649 1.585 1.318 3.174 1.691 4.852-.644.245-1.282.494-1.923.75-.724-1.519-1.29-3.104-1.875-4.674zM167.071 253.42c.693.241 1.386.49 2.079.739-.544 1.777-1.148 3.536-1.674 5.32-.739-.206-1.478-.416-2.217-.625.49-1.848 1.069-3.671 1.812-5.434zM172.629 255.581c.334-.814.679-1.621 1.041-2.42.683.316 1.361.644 2.04.974-.302.754-.608 1.507-.92 2.257-.725-.264-1.443-.535-2.161-.811zM267.149 254.191c.706-.273 1.417-.54 2.132-.803.338.885.672 1.77 1.002 2.659-.696.284-1.396.561-2.093.846a26.412 26.412 0 0 1-1.041-2.702zM179.13 255.648c.313-.689.629-1.375.952-2.058.696.341 1.394.686 2.09 1.023-.341.672-.682 1.34-1.024 2.008-.675-.319-1.35-.642-2.018-.973zM149.073 255.52c.067-.501.426-.856.853-1.087-.071 1.77-.512 3.498-.924 5.214-.085.562-.43.995-.953 1.219.164-1.813.583-3.587 1.024-5.346zM178.191 257.734c.747.231 1.49.476 2.232.729-.451 1.372-.906 2.74-1.39 4.098a139.5 139.5 0 0 1-2.114-.593c.306-1.444.782-2.844 1.272-4.234zM255.922 258.452c.746-.242 1.496-.487 2.246-.714.945 2.854 1.858 5.736 2.25 8.729-.782.039-1.561.082-2.339.113-.423-2.779-1.223-5.483-2.157-8.128zM171.144 260.517c.234-.821.117-1.934.853-2.491.693.135 1.347.409 2.005.665-.242.753-.48 1.507-.718 2.264-.715-.146-1.426-.295-2.14-.438zM268.845 259.461c.753-.23 1.507-.458 2.26-.689.234 1.02.458 2.043.668 3.07-.785.042-1.567.093-2.35.131-.188-.837-.38-1.676-.578-2.512zM292.119 259.998a77 77 0 0 1 6.593-1.169c4.155 22.867-2.1 47.407-16.835 65.397-.65-2.359-1.88-4.53-3.682-6.194 6.291-8.65 11.003-18.521 13.171-29.022 1.788-7.457 1.994-15.194 1.496-22.817-.256-2.065-.646-4.112-.743-6.195zM263.176 260.734c.739-.053 1.481-.11 2.221-.16.143.807.278 1.621.395 2.435-.7.131-1.404.255-2.1.387a7.982 7.982 0 0 1-.516-2.662zM159.71 262.82c.213-.018.64-.053.856-.067-.377 1.801.032 3.998-1.269 5.452-.127-1.809.189-3.601.413-5.385zM176.304 264.128c.768.164 1.532.348 2.296.537-.107.646-.21 1.293-.313 1.944-.792-.043-1.582-.093-2.371-.139.122-.782.253-1.564.388-2.342zM264.05 265.677a106.36 106.36 0 0 0 2.378-.202c.07.864.143 1.727.195 2.594-.753.032-1.507.061-2.257.085-.11-.823-.217-1.649-.316-2.477zM147.246 267.082c.149-.096.444-.281.59-.377.106 2.097-.011 4.197-.142 6.294a85.214 85.214 0 0 0-.871-.007c.185-1.969.075-3.967.423-5.91zM163.627 267.38c.753.007 1.507.028 2.26.053-.067 2.222-.238 4.442-.185 6.671.088 6.077 1.443 12.062 3.451 17.776-.7.257-1.4.509-2.104.751-3.177-7.975-4.165-16.725-3.422-25.251zM270.45 267.44c.754-.018 1.507-.036 2.261-.05.106 1.887.245 3.774.242 5.666-.758 0-1.507.003-2.261.01-.078-1.876-.206-3.749-.242-5.626zM276.624 267.54c.316.37.679.761.658 1.287.415 4.809-.012 9.642-.655 14.412-.213.007-.636.021-.845.025.284-2.701.761-5.392.771-8.118.184-2.534-.22-5.076.071-7.606zM175.408 273.066c-.057-1.535.029-3.074.331-4.578.721.11 1.439.224 2.161.341a285.502 285.502 0 0 1-.213 4.233c-.761.001-1.521.001-2.279.004zM281.113 269.619c1.254-.036 2.509-.064 3.767-.061.028 1.169.047 2.335.054 3.504-1.266.021-2.53.018-3.796-.014-.025-1.144-.039-2.288-.025-3.429zM264.615 270.543c.761-.032 1.524-.06 2.288-.085.008.871.019 1.738.028 2.608-.771 0-1.538.004-2.307.007-.009-.845-.016-1.688-.009-2.53z"/><path fill="#101010" d="M288.658 273.063l.853.003c-.163 1.969-.057 3.966-.405 5.914-.156.085-.465.263-.618.348-.086-2.089.074-4.179.17-6.265zM264.526 275.473c.771-.011 1.538-.014 2.313-.014 0 1.752-.146 3.511-.583 5.214-.722-.121-1.446-.238-2.168-.349.157-1.617.307-3.234.438-4.851zM270.525 275.813c.764-.007 1.531-.003 2.299.007-.024.945-.057 1.894-.077 2.847-.769-.011-1.532-.032-2.297-.046.015-.938.047-1.872.075-2.808zM151.636 276.421c1.208-.011 2.409-.06 3.614-.103.238 3.295.632 6.575 1.318 9.806a27.378 27.378 0 0 1-3.75.739c-.66-3.437-1.375-6.926-1.182-10.442zM258.438 277.239c.754.082 1.508.167 2.262.26-.467 4.453-1.625 8.842-3.474 12.922-.688-.281-1.379-.565-2.067-.842 1.595-3.967 2.76-8.093 3.279-12.34zM159.277 277.864c.995.747.796 2.093 1.023 3.188.231 2.502 1.052 4.897 1.347 7.388-.899-.146-.981-1.112-1.166-1.823-.636-2.874-1.297-5.792-1.204-8.753zM169.704 277.985c.764-.032 1.528-.061 2.296-.082.085.832.171 1.667.242 2.505-.778.043-1.553.103-2.328.156-.071-.858-.149-1.719-.21-2.579zM280.789 279.667c1.273.01 2.542.114 3.807.256-.299 3.483-.998 6.913-1.83 10.303a30.692 30.692 0 0 1-3.71-.796c.635-3.245 1.438-6.462 1.733-9.763zM170.55 283.067c.686-.131 1.372-.259 2.058-.391.675 2.068 1.148 4.201 1.912 6.241.629 1.82 1.528 3.533 2.204 5.334-.651.299-1.297.604-1.944.907-2.03-3.76-3.544-7.865-4.23-12.091zM263.691 282.663c.692.135 1.382.266 2.075.401-.104.846-.231 1.685-.355 2.527l-2.428-.444c.228-.832.458-1.66.708-2.484zM178.245 288.288c.732-.249 1.468-.497 2.204-.739.241.689.483 1.375.718 2.068-.686.267-1.372.536-2.054.803-.296-.71-.584-1.42-.868-2.132zM261.513 289.725a46.05 46.05 0 0 1 .967-2.389l1.996.725a51.221 51.221 0 0 1-.788 2.478c-.726-.271-1.451-.545-2.175-.814zM153.636 290.321a22.572 22.572 0 0 1 3.703-.963c1.287 4.588 2.979 9.082 5.274 13.264.334.636.722 1.265.842 1.986-.927.796-2.065 1.276-3.156 1.802-2.903-5.046-5.131-10.476-6.663-16.089zM264.942 296.906c1.243-2.517 2.164-5.163 3.259-7.74.683.267 1.368.537 2.05.81-.867 2.726-2 5.356-3.248 7.926-.69-.327-1.375-.658-2.061-.996zM180.128 292.301c.682-.298 1.368-.597 2.058-.881.313.636.625 1.275.938 1.915-.689.388-1.4.74-2.129 1.049-.295-.694-.59-1.383-.867-2.083zM277.989 292.554c1.283.227 2.526.637 3.721 1.154-.366 1.066-.746 2.129-1.12 3.191-1.2-.294-2.366-.725-3.493-1.229.252-1.052.558-2.09.892-3.116zM162.575 293.019c.686.288 1.087.899 1.315 1.582 1.443 3.781 3.387 7.36 5.612 10.74.416.554.594 1.226.427 1.911-2.371-2.938-4.123-6.333-5.74-9.729-.644-1.461-1.305-2.93-1.614-4.504zM182.257 296.214c.668-.391 1.336-.774 2.012-1.155.395.586.792 1.177 1.19 1.764-.597.454-1.194.905-1.794 1.357-.48-.648-.95-1.305-1.408-1.966zM250.843 296.822c.448-.594.896-1.188 1.351-1.774.618.395 1.241.789 1.862 1.181-.458.671-.924 1.336-1.396 2.001-.604-.477-1.214-.943-1.817-1.408zM258.402 296.459c.672-.106 1.258.47 1.823.774-.341 1.699-1.699 3.011-2.627 4.437-.597-.37-1.187-.746-1.78-1.116.726-1.444 1.565-2.84 2.584-4.095zM270.227 299.516c.359-.757.789-1.511 1.635-1.784-1.076 3.213-3.031 6.039-4.854 8.867-1.162 1.618-2.232 3.355-3.803 4.617-.203-.971.576-1.649 1.091-2.36 2.345-2.861 4.27-6.043 5.931-9.34zM170.685 300.329a39.71 39.71 0 0 1 2.132-1.023c.444.8.889 1.6 1.312 2.41-.615.373-1.229.746-1.848 1.115a40.432 40.432 0 0 1-1.596-2.502zM263.502 299.313a38.54 38.54 0 0 1 2.151 1.033 51.809 51.809 0 0 1-1.61 2.524c-.541-.459-1.635-.569-1.692-1.391.288-.765.753-1.452 1.151-2.166zM178.692 301.556c.608-.401 1.215-.807 1.823-1.205.533.633 1.059 1.269 1.582 1.909-.611.505-1.229.998-1.859 1.481a76.103 76.103 0 0 1-1.546-2.185zM245.221 303.193a82.888 82.888 0 0 1 1.646-1.603c.519.551 1.038 1.105 1.553 1.66-.576.526-1.151 1.052-1.733 1.571l-1.466-1.628zM247.402 309.254c1.799-1.667 3.629-3.302 5.307-5.097.579.441 1.155.885 1.73 1.329-1.631 2.076-3.61 3.856-5.665 5.505-.455-.582-.913-1.158-1.372-1.737zM191.267 306.13c.451-.544.903-1.084 1.354-1.625 1.194.778 2.349 1.618 3.508 2.449-.38.65-.764 1.294-1.145 1.944-1.336-.785-2.609-1.68-3.717-2.768zM272.647 304.587a21.347 21.347 0 0 1 3.401 1.816 216.02 216.02 0 0 1-1.831 2.979 33.475 33.475 0 0 1-3.174-1.962 59.844 59.844 0 0 1 1.604-2.833zM236.542 309.2c1.794-1.201 3.714-2.215 5.474-3.469.426.601.856 1.201 1.282 1.81-1.77 1.429-3.7 2.679-5.817 3.532l-.939-1.873zM175.601 307.462c.568-.482 1.137-.963 1.709-1.438 2.431 2.812 5.015 5.477 7.865 7.864-.484.566-.967 1.135-1.454 1.695-3.01-2.374-5.732-5.125-8.12-8.121zM183.679 307.444c.505-.515 1.009-1.027 1.514-1.538a73.78 73.78 0 0 1 1.908 1.635c-.508.597-1.027 1.187-1.545 1.773a143.966 143.966 0 0 1-1.877-1.87zM197.707 308.145c.7.263 1.397.541 2.09.828-.295.704-.597 1.404-.899 2.107-.693-.284-1.379-.579-2.061-.874.276-.692.571-1.379.87-2.061zM253.331 311.958c1.354-1.223 2.595-2.566 3.924-3.816.533.49 1.069.977 1.605 1.472-1.236 1.51-2.637 2.874-4.14 4.118-.465-.59-.927-1.18-1.389-1.774zM276.656 312.324c1.009-1.357 1.546-3.213 3.155-3.998-.493 1.716-1.666 3.096-2.576 4.6-.854 1.208-1.524 2.751-3.021 3.28.509-1.472 1.636-2.58 2.442-3.882zM164.156 312.214a31.038 31.038 0 0 1 3.074-2.167c.686.881 1.357 1.772 1.969 2.711a34.347 34.347 0 0 1-2.928 2.286 23.513 23.513 0 0 1-2.115-2.83zM230.635 311.554a71.609 71.609 0 0 1 4.091-1.539c.288.687.571 1.371.86 2.061a25.988 25.988 0 0 1-4.269 1.574c-.231-.7-.459-1.397-.682-2.096zM269.111 310.057c1.069.645 2.085 1.376 3.077 2.137-1.258 2.005-2.847 3.771-4.393 5.555a34.105 34.105 0 0 1-2.79-2.517c1.362-1.731 2.802-3.398 4.106-5.175zM172.665 311.048c.182-.089.547-.258.732-.347 1.223 1.243 2.427 2.512 3.515 3.88l-.683.331a199.953 199.953 0 0 1-3.564-3.864zM205.635 311.481c3.345 1.066 6.821 1.738 10.332 1.909.015.758.025 1.518.04 2.278-3.746-.061-7.435-.843-11.007-1.923.198-.76.412-1.513.635-2.264zM191.522 313.856c.444-.618.888-1.233 1.336-1.845 6.16 3.92 13.186 6.461 20.458 7.211-.053.793-.114 1.585-.181 2.378-7.656-.92-15.183-3.447-21.613-7.744zM222.422 313.273c2.107-.281 4.197-.693 6.275-1.13.192.718.385 1.436.58 2.153-2.122.586-4.29 1.134-6.504 1.18-.455-.621-.246-1.481-.351-2.203zM241.428 313.181a86.03 86.03 0 0 1 2.222-1.137c.359.629.715 1.258 1.073 1.888a37.12 37.12 0 0 1-2.292 1.367c-.338-.703-.675-1.411-1.003-2.118zM185.96 317.176c.438-.562.878-1.12 1.311-1.682.8.505 1.585 1.034 2.35 1.593-.419.59-.697 1.351-1.318 1.76-.925-.327-1.632-1.028-2.343-1.671zM234.825 316.423l2.277-.961c.324.723.633 1.451.936 2.183-.821.295-1.639.594-2.456.892-.256-.704-.512-1.407-.757-2.114zM244.475 318.387c1.56-.905 3.06-1.915 4.591-2.871.448.555.893 1.109 1.337 1.667-1.476 1.332-3.209 2.321-4.919 3.32a53.07 53.07 0 0 1-1.009-2.116zM162.848 318.274c4.766-1.508 10.147 2.378 10.339 7.335.461 4.518-3.462 8.797-7.979 8.818-4.176.205-8.075-3.271-8.398-7.426-.465-3.869 2.268-7.781 6.038-8.727zm.74 2.964c-2.207.597-3.892 2.779-3.704 5.093-.082 2.797 2.552 5.225 5.328 5.008 2.882.007 5.299-2.844 4.88-5.683-.196-3.082-3.579-5.309-6.504-4.418zM268.787 318.385c2.367-.775 5.09-.427 7.141 1.001 2.474 1.643 3.927 4.699 3.604 7.659-.324 3.896-3.807 7.219-7.716 7.364-3.984.313-7.9-2.729-8.548-6.682-.842-3.926 1.735-8.131 5.519-9.342zm1.408 2.803c-2.328.49-4.109 2.762-3.981 5.146-.053 2.743 2.53 5.178 5.264 5.007 2.929.061 5.388-2.843 4.979-5.719-.225-2.955-3.391-5.205-6.262-4.434zM223.047 319.194a487.91 487.91 0 0 0 2.431-.26l.331 2.196c-.893.157-1.791.284-2.687.398a120.73 120.73 0 0 1-.075-2.334zM215.672 319.472c.838-.004 1.681 0 2.523.011.007.764.018 1.528.025 2.292-.871 0-1.742 0-2.612-.007.018-.768.036-1.533.064-2.296zM175.941 319.858a31.109 31.109 0 0 1 2.595 2.183 60.011 60.011 0 0 1-2.349 2.883 55.257 55.257 0 0 1-2.726-2.265 37.677 37.677 0 0 1 2.48-2.801zM234.438 322.908c2.602-.86 5.114-1.965 7.603-3.113.344.687.679 1.383 1.002 2.082-2.591 1.23-5.231 2.379-7.972 3.242a67.917 67.917 0 0 1-.633-2.211zM257.813 322.041a25.442 25.442 0 0 1 2.58-2.192 37.484 37.484 0 0 1 2.499 2.818 45.212 45.212 0 0 1-2.741 2.268 56.5 56.5 0 0 1-2.338-2.894zM199.313 322.041c4.325 1.476 8.757 2.747 13.334 3.124.004.739.007 1.482.018 2.225-1.048-.007-2.1-.05-3.134-.241-3.746-.65-7.46-1.586-11-2.985.256-.713.515-1.419.782-2.123z"/><path fill="#101010" d="M163.968 324.057c1.731-.942 4.002 1.01 3.263 2.854-.44 1.532-2.491 2.207-3.71 1.13-1.422-.981-1.028-3.277.447-3.984zM270.558 323.981c1.724-.753 3.728 1.247 3.039 2.982-.502 1.648-2.819 2.153-3.964.856-1.226-1.147-.593-3.301.925-3.838zM178.927 327.031a19.532 19.532 0 0 1 2.243-2.996c1.777 1.123 3.479 2.367 5.306 3.412 1.955 1.187 4.07 2.082 6.067 3.201a81.24 81.24 0 0 1-1.464 3.427c-4.276-1.916-8.413-4.208-12.152-7.044zM226.359 324.877a58.745 58.745 0 0 1 2.84-.504c.106.771.213 1.542.313 2.313-.935.12-1.866.238-2.801.334-.12-.713-.238-1.428-.352-2.143zM215.37 325.514a90.512 90.512 0 0 1 2.854-.012c0 .769 0 1.54-.003 2.314a159.99 159.99 0 0 1-2.864-.078c.003-.743.01-1.485.013-2.224zM193.204 326.011c1.699.719 3.867.975 4.976 2.584-1.681-.384-3.483-.86-4.84-1.954a63.928 63.928 0 0 0-.136-.63zM238.091 328.104a34.195 34.195 0 0 1 5.025-2.076c-.042.218-.121.647-.163.864-1.489.618-2.981 1.243-4.479 1.852l-.383-.64zM242.47 331.129c2.506-1.002 4.826-2.392 7.278-3.508a40.658 40.658 0 0 1 1.827 3.263c-5.064 2.886-10.48 5.16-16.11 6.686a26.793 26.793 0 0 1-.967-3.686c2.687-.828 5.388-1.639 7.972-2.755zM175.014 329.061c.537.245 1.073.501 1.564.835 4.968 3.59 10.353 6.646 16.106 8.778.65.199 1.208.597 1.418 1.272-3.551-.931-6.828-2.669-10.062-4.364-2.243-1.134-4.297-2.584-6.426-3.909-1.011-.697-2.217-1.355-2.6-2.612zM258.605 331.374c.38-1.251 1.56-1.904 2.711-2.313-.337 1.275-1.524 1.972-2.711 2.313zM202.75 329.587c2.559.27 5.022 1.119 7.595 1.336 1.02.21 2.313.021 2.978 1.002-2.9.089-5.754-.583-8.579-1.144-.758-.196-1.809-.245-1.994-1.194zM218.231 331.453c3.416.023 6.806-.367 10.182-.818-.007.21-.021.625-.031.832-3.384.519-6.803.778-10.222.853l.071-.867z"/><path fill="#101010" d="M217.445 347.943c16.277.252 32.605-5.09 45.591-14.899 1.831 1.675 3.917 3.104 6.373 3.676-18.702 15.285-44.443 21.466-68.045 16.334-7.041-1.476-13.907-3.87-20.297-7.165.981-1.994 1.809-4.087 3.078-5.921 2.708 1.077 5.332 2.392 8.075 3.401 8.085 2.875 16.629 4.613 25.225 4.574z"/><path fill="#101010" d="M214.759 335.98c3.341.057 6.679-.071 10.012-.316.157 1.255.295 2.513.405 3.774-3.477.434-6.988.398-10.481.298.01-1.25.042-2.505.064-3.756zM234.438 341.567c2.779-.498 5.356-1.774 8.153-2.186-.217.493-.597.878-1.131 1.013-5.338 1.833-10.89 3.06-16.508 3.593-2.246.149-4.496.26-6.746.373 0-.213 0-.636-.003-.85 5.458-.113 10.929-.596 16.235-1.943zM199.551 341.329c2.182-.032 4.261.707 6.379 1.134l.014.831c-1.767-.384-3.543-.725-5.289-1.183-.492-.064-.752-.501-1.104-.782z"/></g><g><circle fill="#FFF" cx="218.177" cy="273.677" r="36.431"/><path fill="none" stroke="#030000" stroke-width="2.857" stroke-linecap="round" stroke-miterlimit="10" d="M235.851 282.628c-.701-8.991-8.218-16.068-17.389-16.068-9.17 0-16.688 7.078-17.39 16.068"/><path fill="#030000" d="M220.822 302.507a16.585 16.585 0 0 1-8.074-2.303l-.168-.106c-.21-.159-5.369-3.826-14.521-1.854a1.451 1.451 0 0 1-1.371-.373 1.269 1.269 0 0 1-.314-1.314 1.382 1.382 0 0 1 1.069-.894c9.952-2.145 15.964 1.722 16.82 2.291 6.266 3.442 10.036 1.191 10.189 1.099l.126-.065 10.051-5.071c3.14-1.456 3.841-2.396 3.952-2.583.1-.463 0-.78-.111-.939a5.21 5.21 0 0 0-3.351-.291l-10.498 4.144c-.173.07-.358.106-.547.107h-10.779c-.774 0-1.401-.594-1.401-1.325s.627-1.323 1.401-1.323h8.549c1.318-.173 1.725-.517 1.781-.636.056-.119-.14-.648-.379-.979-11.857-5.693-26.295.105-26.436.172-.698.248-1.479-.064-1.777-.709-.298-.646-.01-1.397.656-1.714.645-.265 16.008-6.461 29.127 0 .153.077.293.18.407.305a4.845 4.845 0 0 1 1.189 2.476l7.725-3.045.252-.08c.688-.132 4.205-.729 6.013.967.88.854 1.23 2.074.926 3.229-.084 1.021-1.163 2.584-5.452 4.569l-9.952 5.031a10.272 10.272 0 0 1-5.102 1.214zm0 0M229.634 255.688c.136-1.079.261-2.331.135-3.69-.328-3.657-2.364-6.085-5.091-7.453-1.859-.933-4.04-1.373-6.217-1.373-1.91 0-3.822.339-5.519 1.053-3.071 1.292-5.433 3.81-5.788 7.773a8.584 8.584 0 0 0 0 1.62c.065.685.148 1.354.246 1.986a.92.92 0 0 0-.126.021c-.794.196-1.155 1.504-.805 2.922.349 1.417 1.275 2.408 2.07 2.213h.001c1.275 4.273 5.241 7.398 9.923 7.398 4.674 0 8.636-3.115 9.917-7.379.768.089 1.631-.875 1.965-2.231.305-1.24.068-2.395-.526-2.797-.026-.018-.08-.059-.185-.063z"/><path fill="#FFF" d="M227.03 260.822a9.704 9.704 0 0 0 .422-1.699c.63-3.147.231-5.488-.141-6.444l-.002-.002c-.112-.354-.266-.639-.471-.828a.94.94 0 0 0-.533-.247 1.22 1.22 0 0 0-.338.013c-3.785.675-10.203-1.917-12.187-2.777-.384-.167-.602-.268-.602-.268s-.043.292-.181.714c-.246.75-.791 1.911-1.932 2.576-1.868 1.093-1.981 3.272-1.808 5.18.067.899.104 1.18.263 2.19.054.338.105.632.146.813.913 4.083 4.486 7.129 8.755 7.129 3.976 0 7.34-2.715 8.604-6.346v.001c.003-.001.004-.003.005-.005z"/><path fill="#030000" d="M215.494 255.831c0 .918-.706 1.695-1.554 1.695-.848 0-1.554-.707-1.554-1.695 0-.918.706-1.696 1.554-1.696.848 0 1.554.778 1.554 1.696M225.255 255.831c0 .918-.706 1.695-1.555 1.695-.848 0-1.554-.707-1.554-1.695 0-.918.706-1.696 1.554-1.696.849 0 1.555.778 1.555 1.696"/><path fill="#FFF" d="M223.798 255.399c0 .255-.256.596-.597.596s-.596-.256-.596-.596c0-.341.255-.596.596-.596.341.085.597.34.597.596"/><path fill="#231815" d="M222.026 261.686h-6.508c-.318 0-.55.248-.507.522.133.75.538 1.417 1.119 1.918a1.468 1.468 0 0 1 1.449-1.334c.5 0 .935.247 1.193.626a1.48 1.48 0 0 1 1.193-.626c.752 0 1.377.585 1.449 1.334.58-.502.985-1.169 1.118-1.918.044-.274-.187-.522-.506-.522z"/><g fill="#E50012"><path d="M222.705 280.546l-2.337-10.2a.295.295 0 0 0-.296-.237h-2.66a.296.296 0 0 0-.296.237l-2.188 10.171a.296.296 0 0 0 .119.296l3.429 2.631a.294.294 0 0 0 .354 0l.128-.104.138.104c.105.079.25.079.355 0l3.163-2.602a.298.298 0 0 0 .091-.296zM216.673 269.666a.293.293 0 0 0 .236.118h.57c.017.001.034.002.05 0H220.485a.289.289 0 0 0 .236-.118l.917-1.242a.294.294 0 0 0-.059-.414l-.177-.059H216.138c-.112 0-.214.063-.264.164s-.039.22.027.31l.772 1.241zM221.415 264.126a1.467 1.467 0 0 0-1.449-1.334 1.48 1.48 0 0 0-1.193.626 1.434 1.434 0 0 0-1.193-.626 1.47 1.47 0 0 0-1.449 1.334 4.031 4.031 0 0 0 2.642.957 4.028 4.028 0 0 0 2.642-.957z"/></g><path fill="#FFF" d="M214.067 255.348c0 .255-.256.596-.596.596s-.596-.256-.596-.596c0-.341.256-.597.596-.597.34.085.596.341.596.597"/><g><path fill="#00FAF0" d="M150.19 526.624v-2.693a23.766 23.766 0 0 0-2.846-.188c-11.602 0-21.07 9.426-21.07 21.057 0 7.11 3.554 13.431 8.982 17.247a20.904 20.904 0 0 1-5.65-14.325c.037-11.484 9.204-20.836 20.582-21.097h.002z"/><path fill="#00FAF0" d="M150.677 557.259a9.61 9.61 0 0 0 9.581-9.241v-45.821h8.382a14.71 14.71 0 0 1-.261-2.917h-11.452v45.82a9.605 9.605 0 0 1-9.583 9.239 9.365 9.365 0 0 1-4.452-1.121 9.547 9.547 0 0 0 7.785 4.041zm33.64-39.499v-2.548a15.782 15.782 0 0 1-8.683-2.58 16.278 16.278 0 0 0 8.683 5.124v.004z"/><path fill="#FF0050" d="M175.676 512.634a15.865 15.865 0 0 1-3.93-10.438h-3.069a16.096 16.096 0 0 0 6.999 10.438zm-28.332 22.516a9.615 9.615 0 0 0-9.619 9.608v.004c0 3.704 2.096 6.882 5.166 8.491a9.676 9.676 0 0 1-1.833-5.61c-.001-5.309 4.303-9.614 9.611-9.614h.006a8.98 8.98 0 0 1 2.846.45v-11.671a23.77 23.77 0 0 0-2.846-.185h-.484v8.978a8.907 8.907 0 0 0-2.846-.453v.002z"/><path fill="#FF0050" d="M184.319 517.76v8.9c-5.95 0-11.415-1.906-15.906-5.125v23.228c0 11.597-9.43 21.059-21.069 21.059-4.491 0-8.645-1.42-12.051-3.816 3.854 4.117 9.318 6.733 15.418 6.733 11.602 0 21.071-9.422 21.071-21.059v-23.227a27.262 27.262 0 0 0 15.906 5.124v-11.444a19.578 19.578 0 0 1-3.37-.375v.002z"/><path fill="#FFF" d="M168.413 544.767v-23.229a27.27 27.27 0 0 0 15.904 5.124v-8.902a16.124 16.124 0 0 1-8.683-5.124 15.732 15.732 0 0 1-6.96-10.438h-8.382v45.823a9.604 9.604 0 0 1-9.583 9.237 9.504 9.504 0 0 1-7.785-4.001 9.616 9.616 0 0 1-5.165-8.491c-.001-5.311 4.303-9.614 9.611-9.616h.008c.972 0 1.946.152 2.843.451v-8.978c-11.377.261-20.545 9.612-20.545 21.022a20.854 20.854 0 0 0 5.65 14.327 20.98 20.98 0 0 0 12.052 3.813c11.564.038 21.032-9.426 21.032-21.021h.003zm44.042-33.206h-5.438v7.984h-6.319v5.441h6.319v11.085l-6.319.919v5.734l6.319-.923v9.494a1.392 1.392 0 0 1-1.38 1.382h-4.561v5.439h6.82a4.572 4.572 0 0 0 4.561-4.561v-12.55l5.527-.839v-5.728l-5.527.837V525.03h5.527v-5.438h-5.527v-8.033h-.002zm30.815 0h-5.401v28.403l-17.914 1.549v5.73l17.914-1.505v12.756h5.401v-13.26l5.524-.502v-5.731l-5.524.503v-27.943z"/><path fill="#FFF" d="M235.063 517.88l-12.849-2.303v5.773l12.849 2.26v-5.73zm0 11.918l-12.849-2.3v5.772l12.849 2.302v-5.774zm57.881-2.384l.836-4.432h-5.732l-.881 4.432h-14.982l-.67-4.432h-5.777l.713 4.432h-10.883v5.313h48.006v-5.313h-10.63zm9.123-12.09h-18.205l-.922-3.764h-7.072l.92 3.764h-19.713v5.272h44.992v-5.272zm-7.406 21.295h-30.182a4.573 4.573 0 0 0-4.561 4.561v12.423a4.573 4.573 0 0 0 4.561 4.563h30.178a4.573 4.573 0 0 0 4.561-4.563V541.18a4.545 4.545 0 0 0-4.561-4.561h.004zm-28.252 4.938h26.369c.752 0 1.379.628 1.379 1.381v2.219h-29.088v-2.219a1.309 1.309 0 0 1 1.229-1.381h.111zm26.369 11.713h-26.369a1.393 1.393 0 0 1-1.381-1.38v-2.26h29.086v2.26a1.354 1.354 0 0 1-1.332 1.38h-.004z"/></g><g><path fill="#00FAF0" d="M272.177 215.472v-.871a7.725 7.725 0 0 0-.92-.061c-3.753 0-6.814 3.048-6.814 6.81 0 2.3 1.149 4.344 2.904 5.578a6.764 6.764 0 0 1-1.827-4.633c.012-3.714 2.977-6.739 6.657-6.823z"/><path fill="#00FAF0" d="M272.334 225.379a3.108 3.108 0 0 0 3.099-2.989v-14.819h2.711a4.74 4.74 0 0 1-.085-.943h-3.703v14.818a3.105 3.105 0 0 1-3.099 2.988 3.015 3.015 0 0 1-1.439-.363 3.08 3.08 0 0 0 2.516 1.308zm10.88-12.774v-.824a5.102 5.102 0 0 1-2.808-.834 5.28 5.28 0 0 0 2.808 1.658z"/><path fill="#FF0050" d="M280.419 210.947a5.124 5.124 0 0 1-1.271-3.375h-.992a5.201 5.201 0 0 0 2.263 3.375zm-9.162 7.282a3.11 3.11 0 0 0-3.111 3.107v.001c0 1.198.678 2.226 1.671 2.746a3.115 3.115 0 0 1-.593-1.814 3.108 3.108 0 0 1 3.108-3.109h.001c.315 0 .631.048.921.146v-3.774a7.525 7.525 0 0 0-.921-.06h-.156v2.904a2.88 2.88 0 0 0-.92-.147z"/><path fill="#FF0050" d="M283.214 212.605v2.879a8.789 8.789 0 0 1-5.144-1.658v7.512a6.82 6.82 0 0 1-6.813 6.811 6.747 6.747 0 0 1-3.897-1.234 6.812 6.812 0 0 0 4.986 2.177c3.752 0 6.814-3.047 6.814-6.811v-7.512a8.816 8.816 0 0 0 5.144 1.657v-3.701a6.335 6.335 0 0 1-1.09-.12z"/><path d="M278.07 221.339v-7.512a8.816 8.816 0 0 0 5.144 1.657v-2.879a5.217 5.217 0 0 1-2.808-1.657 5.089 5.089 0 0 1-2.252-3.375h-2.71v14.819a3.106 3.106 0 0 1-3.1 2.988 3.078 3.078 0 0 1-2.518-1.294 3.114 3.114 0 0 1-1.671-2.746 3.11 3.11 0 0 1 3.109-3.11h.003c.313 0 .629.049.919.146v-2.904c-3.68.084-6.646 3.109-6.646 6.799 0 1.79.691 3.423 1.828 4.634a6.795 6.795 0 0 0 3.898 1.233c3.742.012 6.803-3.049 6.804-6.799z"/></g></g></g></switch></svg>