<svg xmlns="http://www.w3.org/2000/svg" width="436.354" height="583.354"><switch><g><path fill="#F8F8F8" d="M.677 485.341v79.148c0 10.044 6.492 18.188 14.5 18.188h406c8.008 0 14.5-8.144 14.5-18.188v-79.148h-435z"/><path fill="none" stroke="#231815" stroke-width="1.353" stroke-miterlimit="10" d="M435.677 564.489c0 10.044-6.492 18.188-14.5 18.188h-406c-8.008 0-14.5-8.144-14.5-18.188V18.864C.677 8.819 7.169.676 15.177.676h406c8.008 0 14.5 8.143 14.5 18.188v545.625z"/><text transform="translate(38.005 440.34)"><tspan x="0" y="0" fill="#231815" font-family="'FZLTZHUNHJW--GB1-0'" font-size="24">打开手机微</tspan><tspan x="120" y="0" fill="#231815" font-family="'FZLTZHUNHJW--GB1-0'" font-size="24" letter-spacing="6">信</tspan><tspan x="150" y="0" fill="#231815" font-family="'FZLTZHUNHJW--GB1-0'" font-size="24">APP</tspan><tspan x="204.75" y="0" fill="#231815" font-family="'FZLTZHUNHJW--GB1-0'" font-size="24" letter-spacing="6">,</tspan><tspan x="218.344" y="0" fill="#231815" font-family="'FZLTZHUNHJW--GB1-0'" font-size="24">扫码后关注我</tspan></text><text transform="translate(50.605 131.677)"><tspan x="0" y="0" fill="#50525A" font-family="'SourceHanSerifCN-Bold-GBpc-EUC-H'" font-size="22.6">品干</tspan><tspan x="45.2" y="0" fill="#50525A" font-family="'SourceHanSerifCN-Bold-GBpc-EUC-H'" font-size="22.6" letter-spacing="5">货,</tspan><tspan x="86.671" y="0" fill="#50525A" font-family="'SourceHanSerifCN-Bold-GBpc-EUC-H'" font-size="22.6">来我</tspan><tspan x="131.871" y="0" fill="#50525A" font-family="'SourceHanSerifCN-Bold-GBpc-EUC-H'" font-size="22.6" letter-spacing="5">家,</tspan><tspan x="173.343" y="0" fill="#50525A" font-family="'SourceHanSerifCN-Bold-GBpc-EUC-H'" font-size="22.6">我是干货分享</tspan><tspan x="308.939" y="0" fill="#50525A" font-family="'SourceHanSerifCN-Bold-GBpc-EUC-H'" font-size="22.6" letter-spacing="5">家</tspan><tspan x="337.189" y="0" fill="#50525A" font-family="'SourceHanSerifCN-Bold-GBpc-EUC-H'" font-size="22.6">!</tspan></text><text transform="translate(194.11 551.692)" fill="#5D5E5E" font-family="'MicrosoftYaHei'" font-size="46" letter-spacing="9">订阅号</text><text transform="translate(122.777 75.357)" fill="#030000" font-family="'SourceHanSerifCN-Bold-GBpc-EUC-H'" font-size="36" letter-spacing="2">干货分享家</text><g><path fill="#FFF" d="M275.677 236.176h5.001v5h-5.001zM240.677 236.176h5v5h-5zM265.677 221.177v-10h-5v5h-5v10h5v-5zM240.677 211.177h5v5h-5zM205.677 276.178h5v-5.002h-10v5.002zM215.676 276.178V286.176h5.002v-4.998h4.999v-5h-4.999v-5.002h-5.002zM190.677 276.178h5v5h-5zM200.677 271.176v-5h-10v5h5zM205.677 286.176V296.177h5v-5h4.999v-5.001h-4.999zM200.677 281.178h-5v4.998h10v-4.998zM240.677 261.177h5v4.999h-5zM220.678 216.177v10h4.999v-15h-4.999zM185.677 246.177v5h5v10h5v-15h-5zM215.676 246.177h-4.999v10h4.999v5h5.002v-10h-5.002zM195.677 206.177h5v5h-5zM200.677 211.177h5v5h-5zM205.677 261.177v4.999h5V256.177h-5zM245.677 206.177v5h5.001v5h4.999v-5h5V201.176H250.678v5.001zM240.677 196.177v-5h-5v-5.001h-5V196.177h5zM230.677 221.177v5h5v-5h5v-5h-5v-5h-5v5z"/><path fill="#FFF" d="M265.677 226.177h-5v5h-5v4.999h10v5.001h5v-5.001h5v-4.999h-5v-10h-5zM155.677 246.177h5v5h-5zM185.677 271.176h5v5.002h-5zM150.677 241.177h-5v5h10v-5zM190.677 186.176h5v5.001h-5zM270.677 266.176h5v5h-5zM140.677 211.177h15v-25h-25v25h10zm-5-10.001V191.177h15V206.176h-15v-5zM130.677 231.177h5v4.999h-5zM145.677 336.178h-15V361.178h25v-25h-10zm5 10v9.999h-15v-15h15v5.001zM135.677 236.176h5v5h-5zM155.677 236.176h5v5h-5zM185.677 291.177v-9.999h-15v4.998h5v5.001h5zM155.677 316.177h5v5h-5zM190.677 291.177h-5v5h5v5h5v-5h5v-5h-5v-5.001h-5zM190.677 306.178h5v4.999h-5zM190.677 316.177h5v5h-5zM235.677 306.178h5v4.999h-5zM195.677 311.177h5v5h-5zM200.677 306.178h5v4.999h-5zM245.677 256.177h5.001v5h-5.001zM205.677 321.177h5v-10h-5v5zM185.677 331.177h-5v5.001h10v-5.001zM220.678 326.177h4.999v5h-4.999zM185.677 321.177v-5h-10v5h5zM210.677 326.177h-5v-5h-10v5h5v5h-5v10h10v-10H215.676v-5zM190.677 351.176h5v5.001h-5zM165.676 266.176h-15V281.178h20.001V271.176h-5.001v-5zm-4.999 10.002h-5v-5.002h5v5.002zM145.677 271.176v-5h-5V276.178h5zM165.676 321.177h5.001v5h-5.001zM190.677 351.176v-9.999h-10v9.999h5z"/><path fill="#FFF" d="M150.677 316.177h5v-5h5v5h10V306.178h-15v-5.001h15v5.001h20v-5.001h-10v-5h-5v-5h-5v5h-5.001v-5h5.001v-5.001h-15v5.001h5v5h-10v5h-5v10h5zM270.677 296.177h5v5h-5zM295.676 186.176H280.678v25H305.678v-25h-10.002zm5.001 10.001V206.176h-15V191.177h15v5zM270.677 296.177v-5h5v-5.001h-15v-4.998h5V266.176h-5v-4.999h-5v4.999h-4.999v5H240.677v-5h-19.999v5H230.677V281.178h-5v4.998h5v5.001h-5v5h-4.999v5h-5.002v5.001h10.001V321.177h5v5h10v-5h5v-5h-10v-5h-5v-15h15V286.176h-5v5.001h-5v-9.999h5v-5h15v-5.002h5v5.002h-5v5h-10v4.998h10V296.177h5v5h5v-5z"/><path fill="#FFF" d="M120.677 176.177v195h195v-195h-195zm4.999 35v-29.999H160.677V216.177h-35.001v-5zm35.001 10v5h-15v-5h15zm0 115.001V366.177h-35.001v-35H160.677v5.001zm80 25v4.999h-5v-4.999h-5v-5.001h10v5.001zm-10-20.001v-4.999h5v4.999h-5zm80-70.001V281.178h-4.999v-5h-15v5h-5.001v4.999h-4.999v15h10v5.001h4.998v-5.001h5.001v-10h-5.001v5h-9.999v-5h9.999v-5H310.677v10h-4.999v5h4.999v20h-4.999v5h4.999V336.178H295.676v-5.001h10.002v-5h-5.001v-5h5.001v-5h-5.001v-5h5.001v-4.999h-10.002v4.999h-4.998v-4.999h-20.001v-5.001h-5v5.001h-5v-5.001H250.678v5.001h4.999v4.999h-4.999v5H265.677v-5h5v5h15v5h9.999v5h-4.998v15h4.998v5.001H310.677v9.999h-4.999v5.001h4.999v4.999h-10v-10h5.001v-5.001h-10.002v-4.998h-9.999v4.998h5.001v5.001h4.998v5.001h-4.998v4.999h-25.001v-4.999h-10v4.999h-10v-10h20v-15h-5v5.001h-5v4.998h-4.999v-4.998h-5.001v4.998h-5V336.178h5v-5.001h-20V346.178h5v4.998h-5v-4.998h-4.999V331.177h-5.002v10h-4.999v5.001h4.999v4.998h-4.999v-4.998h-15v4.998h5v10.002h5v-5.001h5v5.001h4.999v-5.001h5.002v5.001h4.999v4.999h-4.999v-4.999h-5.002v4.999h-4.999v-4.999h-5v4.999h-20v-4.999h5v-5.001h-10v10h-10v-10h-5.001v-5.001h5.001v5.001h10v-5.001h-5v-4.998H165.676v-10h5.001v-5.001h-5.001v-5h-20v-15h-5v5h-5v5h5v5h-5v-5h-5v5h-5.001v-5h5.001v-5h-5.001v-5h5.001v5h5V306.178h5v-5.001h-10v5.001h-5.001V291.177H135.676v5h5v-5h10v-5h-20v-4.999h5V271.176h-5v-5h5v-4.999h35.001V271.176h10v-5h-5v-4.999h5v4.999h5V256.177h-10v-5h5v-5h-5V231.178h-5v4.999h-5.001v5h5.001v5h-5.001v10h-10v-5h-5v5h-5v-5h-5v5h-5v-5h-5v10h-5.001v-29.999h5.001v-5h5v-5h5V236.177h5v-4.999h25.001v-5h-5.001v-5h5.001v5h10v-10h-5v-5h-5v5h-5.001v-5h5.001v-10h-5.001v-4.999h5.001v4.999h5v10h5v5h5v-10h-5v-5h5v-4.999h5v-5h-5v-5.001h-5v5.001h-10v-5.001h-5.001v-4.999H175.677v4.999h5v-4.999h15v4.999h5v5.001h-5v5h5V206.178h5v5h5v5h4.999v-10h-4.999v-5h4.999v5h10.001v5h5V196.179h-5v4.999h-4.999v-4.999h-15.001v-15h5v4.999h4.999v-4.999h5.002v4.999h-5.002v5.001h5.002v5h4.999V186.178h5v-4.999h5v4.999H250.678v5.001h-5.001v5h-5v4.999H250.678v-4.999H260.677v-5h-5v-10h10v4.999h5v15h-5v5h5v15h5v10h10V241.177h-4.999v15h-5.001v-15h-5v10h-10v-10h-5v5h-4.999v-5h-5.001v5h-5v10h5v-5h10v5h10v5h20v4.999h-4.999v5h-5.001v5.002h5.001v5h4.999v-5h5.001V261.177h4.998v4.999H310.677v5zm0-44.999v29.999h-4.999v5h-5.001v-5h-5.001v-5h-4.998v5h-5.001v-5h5.001v-10h4.998v5h10.002v-5h-5.001v-5h5.001v-4.999h-15v-10h4.998v5h10.002v-5h4.999v5zm0-40.001v30h-35v-34.999H310.677v4.999z"/><path fill="#FFF" d="M215.676 316.177h5.002v5h-5.002zM265.677 316.177h5v5h-5zM275.677 351.176h-5v5.001h5v5.001h5.001v-15h-5.001zM250.678 326.177V336.178H260.677v-5.001h5v-5h-5v-5h-5v5zM245.677 296.177h5.001v5h-5.001zM270.677 336.178v4.999h15v-15h-15V336.178zm5-5.001h5.001v5.001h-5.001v-5.001zM250.678 231.177v-5H240.677v5h5zM180.677 236.176h5v-4.999h10v4.999h-10v5.001h10v5h5v10h5v-10h5v-5h10.001v10h4.999v5h5v-5h5v-20h-5v15h-5V236.176h-20v5.001h-5v-10h5v-5h5v5h10.001v-5h-5.002v-5h-4.999v-5h-5v5h-5v5h-5v-15h-5v15h-10v5zM195.677 206.177v-5.001h-10v5.001h5zM180.677 241.177h5v5h-5z"/><path fill="#040000" d="M175.677 181.177H165.676v4.999h5.001v5.001h10v-5.001h-5zM195.677 186.176v-4.999h-15v4.999h5v5.001h5v-5.001zM215.676 181.177h5.002v4.999h-5.002zM230.677 181.177h5v4.999h-5zM300.677 181.177h-25V216.176H310.677v-34.999h-10zm5.001 10v19.999h-25v-25H305.678v5.001zM195.677 186.176h5v5.001h-5zM230.677 186.176h-5V196.177h5v-5zM240.677 191.177v5h5v-5h5.001v-5.001H235.677v5.001z"/><path fill="#040000" d="M215.676 191.177v-5.001h-4.999v-4.999h-5v15H220.678v-5zM290.678 191.177h-5.001v15h15v-15h-5.001zM165.676 196.177h5.001v4.999h-5.001zM195.677 201.176v5.001h5v-10h-5v-5h-5v5h-5v4.999h5zM220.678 196.177h4.999v4.999h-4.999zM260.677 201.176V211.177h5v10h5v-15h-5v-5.001h5v-15h-5v-4.999h-10v10h5v5H250.678v4.999h4.999zM145.677 206.177h5v-15h-15v15h5zM175.677 201.176h-5V211.177h5v-5zM180.677 201.176h5v5h-5zM210.677 201.176h4.999v5h-4.999zM200.677 206.177h5v5h-5z"/><path fill="#040000" d="M135.677 216.177h25v-34.999h-35.001V216.177H135.677zm-5-10v-20h25v25h-25v-5zM165.676 211.177h5.001v5h-5.001zM175.677 211.177h5v5h-5zM200.677 211.177h-5v15h5v-5h5v-5h-5zM205.677 211.177h5v5h-5zM235.677 216.177h5v-5h5v-5h5.001v-5.001H240.677v-4.999h-10v15h5zM255.677 211.177h5v5h-5zM215.676 221.177v5h5.002v-15h4.999v-5h-10.001v10h-4.999v5zM150.677 221.177h-5v5h15v-5h-5zM165.676 221.177h5.001v5h-5.001zM190.677 226.177v-15h5v-5h-10v10h-5v10h5zM260.677 221.177h5v5h-5zM305.678 226.177h-10.002v-5h-4.998v10h15v4.999h-5.001v5.001h5.001v5h-10.002v-5h-4.998v10h4.998v5h5.001v5h5.001v-5h4.999v-35h-4.999zM270.677 231.177h5v-10h-5v5zM135.677 236.176h5V221.177h-5v5h-5v5h5z"/><path fill="#040000" d="M160.677 231.177h-15v4.999h-5v5.001h-5v-5.001h-5v-4.999h-5.001v30h5.001v-10h5v5h5v-5h5v5h5v-5h5v-5h-10v-5h10v-5.001h5v5.001h-5v5h5v5h-5v5H165.676v-10h5.001v-5h-5.001v-5.001h5.001v-4.999h-5.001zM195.677 236.176v-4.999h-10v4.999h5zM280.678 236.176v5.001h4.999v-10h-10v4.999zM185.677 241.177v-5.001h-5V226.177h-10v5h5v15h5v-5zM270.677 236.176h5v5h-5zM190.677 241.177h-5v5h10v-5zM220.678 241.177h-10.001v5h4.999v5h5.002v-5zM275.677 246.177v10h5.001v-15h-5.001zM210.677 246.177h-5v10h5v-5zM285.677 251.177h5.001v5h-5.001zM175.677 261.177h5v4.999h-5zM300.677 266.176h-5.001v-4.999h-4.998V276.178h15v5h4.999V266.176h-4.999zM155.677 271.176h5v5.002h-5zM225.677 276.178v5h5V271.176H220.678v5.002zM255.677 271.176h5v5.002h-5z"/><path fill="#040000" d="M170.677 281.178h15V291.177h5v-5h5v-4.999h-5v-5h-5v-5.002h5v-5h10v5h10v5.002h-10v-5.002h-10v5.002h5v5h10v4.999H215.676V271.176h5.002v-5h19.999v-4.999h5v-5h-5v-10h5v-5h-5v-5h5v5h5.001v5h4.999v-5h5v10h10v-10h-5v-5h-10v-4.999h5v-5h-5v-10h-4.999v-5h-5.001v5h-5v5h-5v5h-5v-15h-5v15h-4.999v5h-10.001v-5h-5v5h-5V241.177h5v-5H225.677v10h5V231.178h5v19.999h-5v5h-5v-5h-4.999v10h-5.002v-5h-4.999V266.176h-5V256.177h-5v-10h-5v15h-5v-10h-5v-5h-5v5h-5v5h10V266.176h-5v5h-10V281.178zm70-55.001H250.678v5H240.677v-5zM250.678 281.178h4.999v-5h-15v5h-5v9.999h5v-5.001h5v-4.998z"/><path fill="#040000" d="M280.678 276.178h-5.001v-5.002h-5v-5h5v5h5.001v-5h4.999v-4.999h-20v-5h-10v-5h-10v5h5.001v5h-5.001v4.999h-5v5H250.678v-5h4.999v-4.999h5v4.999h5V281.178h-5v4.998h15v5.001h-5v5h5v5h-5v5.001h20.001v-5.001h-10V286.176h4.999v-4.998h-4.999z"/><path fill="#040000" d="M285.677 276.178h5.001v5h-5.001zM170.677 286.176h5v5h-5zM165.676 291.177h5.001v5h-5.001zM285.677 291.177v5h9.999v-5h-4.998zM185.677 296.177v-5h-10v5h5v5h10v-5zM245.677 296.177h-15v15h5v-4.999h5v4.999h-5v5h10v5h-5v5h-10v-5h-5V306.178h-10.001v-5.001h5.002v-5h4.999v-5h5v-5h-5v-4.999h-4.999v4.999h-5.002v5h-4.999v5h-5v-10h-10v5h5v5h-5v5h-5v5.001h5v4.999h5v-4.999h5v4.999h5v10h-5v5H215.676v5h5.002v-5h4.999v5h20v5.001h-5V351.176h5v-4.998h5.001v4.998h4.999v-4.998h5v-5.001h5v15h-20v10h10v-4.999h10v4.999h25.001v-4.999h4.998v-5.001h-4.998v-5.001h-5.001v-4.998h9.999v-5.001h-4.998v-15h4.998v-5h-9.999v-5h-15v5h-5v-5H250.678v-5h4.999v-4.999h-4.999v-5.001h-5.001v-5zm-30.001 25v-5h5.002v5h-5.002zm65.002 29.999v10.002h-5.001v-5.001h-5v-5.001h5v-4.998h5.001v4.998zm-5.001-24.999h10v15h-15v-15h5zm-15-5v5h5v5h-5v5.001H250.678V326.177h4.999v-5h5z"/><path fill="#040000" d="M255.677 296.177V286.176h-10V296.177h5.001v5H260.677v-5zM265.677 296.177h5v5h-5zM145.677 301.177h5v-5h10v-5h-5v-5H170.678v-4.999h-20.001V266.176h15v5h5.001V261.177H135.677v4.999h-5v5h5V281.178h-5v4.999h20v5h-10v5h-5v-5H125.676V306.178h5.001v-5.001h10v5.001h-5V316.177h5v-5h5v-10zm-5-30.001v-5h5V276.178h-5v-5.002z"/><path fill="#040000" d="M165.676 301.177H155.677v5.001h15v-5.001zM260.677 301.177h5v5.001h-5zM305.678 306.178v4.999h-5.001v5h5.001v5h4.999v-20h-4.999v-5h4.999V286.176H295.676v5.001h5.001v10h-5.001v5.001h5.001zM290.678 306.178h4.998v4.999h-4.998zM125.676 311.177h5.001v5h-5.001zM155.677 311.177h5v5h-5zM265.677 311.177h5v5h-5zM130.677 316.177h5v5h-5zM195.677 316.177v5h10v-10h-5v5zM125.676 321.177h5.001v5h-5.001zM135.677 321.177h5v5h-5zM300.677 321.177h5.001v5h-5.001zM150.677 331.177h-25.001V366.177H160.677v-35h-10zm5 10v20.001h-25v-25h25v4.999z"/><path fill="#040000" d="M205.677 331.177v10h-10v-10h5v-5h-5v-5h-5v-5h5v-5h-5v-4.999h-20V316.177H160.676v5h-5v-5h-5v-5h-5v15h20v-5h5.001v5h-5.001v5h5.001v5.001h-5.001v10H175.677v4.998h5v-9.999h10v9.999h5v-4.998h15v-5.001h4.999v-10H205.677zm-30-15h10v5h-10v-5zm10 20.001h-5v-5.001h10v5.001h-5zM220.678 336.178v10h4.999V331.177h-4.999zM275.677 331.177h5.001v5.001h-5.001zM300.677 331.177h-5.001v5.001H310.677V326.177h-4.999v5zM230.677 336.178h5v4.999h-5zM140.677 341.177h-5v15h15v-15h-5zM210.677 346.178h4.999v4.998h-4.999zM225.677 346.178h5v4.998h-5zM300.677 351.176h5.001v5.001h4.999v-9.999H295.676v4.998zM165.676 351.176h5.001v5.001h-5.001zM185.677 351.176h-5v5.001h10v-5.001zM170.677 356.177v10h10v-10h-5zM190.677 356.177v5.001h-5v4.999h20v-4.999h-5v-10.002h-5v5.001zM205.677 356.177h5v5.001h-5zM215.676 356.177h5.002v5.001h-5.002zM230.677 356.177v5.001h5v4.999h5v-10h-5zM300.677 361.178v4.999h10v-4.999h-4.999v-5.001h-5.001zM210.677 361.178h4.999v4.999h-4.999zM220.678 361.178h4.999v4.999h-4.999z"/></g><g><circle fill="#FFF" cx="218.177" cy="273.677" r="36.431"/><path fill="none" stroke="#030000" stroke-width="2.857" stroke-linecap="round" stroke-miterlimit="10" d="M235.851 282.628c-.701-8.991-8.218-16.068-17.389-16.068-9.17 0-16.688 7.078-17.39 16.068"/><path fill="#030000" d="M220.822 302.507a16.585 16.585 0 0 1-8.074-2.303l-.168-.106c-.21-.159-5.369-3.826-14.521-1.854a1.451 1.451 0 0 1-1.371-.373 1.269 1.269 0 0 1-.314-1.314 1.382 1.382 0 0 1 1.069-.894c9.952-2.145 15.964 1.722 16.82 2.291 6.266 3.442 10.036 1.191 10.189 1.099l.126-.065 10.051-5.071c3.14-1.456 3.841-2.396 3.952-2.583.1-.463 0-.78-.111-.939a5.21 5.21 0 0 0-3.351-.291l-10.498 4.144c-.173.07-.358.106-.547.107h-10.779c-.774 0-1.401-.594-1.401-1.325s.627-1.323 1.401-1.323h8.549c1.318-.173 1.725-.517 1.781-.636.056-.119-.14-.648-.379-.979-11.857-5.693-26.295.105-26.436.172-.698.248-1.479-.064-1.777-.709-.298-.646-.01-1.397.656-1.714.645-.265 16.008-6.461 29.127 0 .153.077.293.18.407.305a4.845 4.845 0 0 1 1.189 2.476l7.725-3.045.252-.08c.688-.132 4.205-.729 6.013.967.88.854 1.23 2.074.926 3.229-.084 1.021-1.163 2.584-5.452 4.569l-9.952 5.031a10.272 10.272 0 0 1-5.102 1.214zm0 0M229.634 255.688c.136-1.079.261-2.331.135-3.69-.328-3.657-2.364-6.085-5.091-7.453-1.859-.933-4.04-1.373-6.217-1.373-1.91 0-3.822.339-5.519 1.053-3.071 1.292-5.433 3.81-5.788 7.773a8.584 8.584 0 0 0 0 1.62c.065.685.148 1.354.246 1.986a.92.92 0 0 0-.126.021c-.794.196-1.155 1.504-.805 2.922.349 1.417 1.275 2.408 2.07 2.213h.001c1.275 4.273 5.241 7.398 9.923 7.398 4.674 0 8.636-3.115 9.917-7.379.768.089 1.631-.875 1.965-2.231.305-1.24.068-2.395-.526-2.797-.026-.018-.08-.059-.185-.063z"/><path fill="#FFF" d="M227.03 260.822a9.704 9.704 0 0 0 .422-1.699c.63-3.147.231-5.488-.141-6.444l-.002-.002c-.112-.354-.266-.639-.471-.828a.94.94 0 0 0-.533-.247 1.22 1.22 0 0 0-.338.013c-3.785.675-10.203-1.917-12.187-2.777-.384-.167-.602-.268-.602-.268s-.043.292-.181.714c-.246.75-.791 1.911-1.932 2.576-1.868 1.093-1.981 3.272-1.808 5.18.067.899.104 1.18.263 2.19.054.338.105.632.146.813.913 4.083 4.486 7.129 8.755 7.129 3.976 0 7.34-2.715 8.604-6.346v.001c.003-.001.004-.003.005-.005z"/><path fill="#030000" d="M215.494 255.831c0 .918-.706 1.695-1.554 1.695-.848 0-1.554-.707-1.554-1.695 0-.918.706-1.696 1.554-1.696.848 0 1.554.778 1.554 1.696M225.255 255.831c0 .918-.706 1.695-1.555 1.695-.848 0-1.554-.707-1.554-1.695 0-.918.706-1.696 1.554-1.696.849 0 1.555.778 1.555 1.696"/><path fill="#FFF" d="M223.798 255.399c0 .255-.256.596-.597.596s-.596-.256-.596-.596c0-.341.255-.596.596-.596.341.085.597.34.597.596"/><path fill="#231815" d="M222.026 261.686h-6.508c-.318 0-.55.248-.507.522.133.75.538 1.417 1.119 1.918a1.468 1.468 0 0 1 1.449-1.334c.5 0 .935.247 1.193.626a1.48 1.48 0 0 1 1.193-.626c.752 0 1.377.585 1.449 1.334.58-.502.985-1.169 1.118-1.918.044-.274-.187-.522-.506-.522z"/><g fill="#E50012"><path d="M222.705 280.546l-2.337-10.2a.295.295 0 0 0-.296-.237h-2.66a.296.296 0 0 0-.296.237l-2.188 10.171a.296.296 0 0 0 .119.296l3.429 2.631a.294.294 0 0 0 .354 0l.128-.104.138.104c.105.079.25.079.355 0l3.163-2.602a.298.298 0 0 0 .091-.296zM216.673 269.666a.293.293 0 0 0 .236.118h.57c.017.001.034.002.05 0H220.485a.289.289 0 0 0 .236-.118l.917-1.242a.294.294 0 0 0-.059-.414l-.177-.059H216.138c-.112 0-.214.063-.264.164s-.039.22.027.31l.772 1.241zM221.415 264.126a1.467 1.467 0 0 0-1.449-1.334 1.48 1.48 0 0 0-1.193.626 1.434 1.434 0 0 0-1.193-.626 1.47 1.47 0 0 0-1.449 1.334 4.031 4.031 0 0 0 2.642.957 4.028 4.028 0 0 0 2.642-.957z"/></g><path fill="#FFF" d="M214.067 255.348c0 .255-.256.596-.596.596s-.596-.256-.596-.596c0-.341.256-.597.596-.597.34.085.596.341.596.597"/><g fill-rule="evenodd" clip-rule="evenodd"><path fill="#FFF" d="M99.129 524.65c-1.561 2.513-2.947 5.096-4.029 7.835-1.974 4.995-3.103 10.126-2.453 15.531.496 4.131 2.008 7.844 4.689 11.053 3.268 3.909 7.504 6.3 12.293 7.82 3.518 1.115 7.139 1.658 10.81 1.788 2.56.089 5.13.232 7.688-.197 9.005-1.514 16.435-8.702 18.16-17.625.134-.694.326-1.39.29-2.205-.228.163-.396.274-.554.399-1.188.952-2.436 1.818-3.792 2.508-5.175 2.632-10.648 3.33-16.334 2.345-1.408-.244-2.546.091-3.678.872-1.882 1.299-3.809 2.535-5.717 3.798-.395.262-.81.392-1.239.102-.442-.3-.521-.724-.409-1.233.376-1.733.732-3.47 1.091-5.207.204-.987-.103-1.741-.968-2.268-2.063-1.251-3.998-2.67-5.765-4.314-4.066-3.782-7.014-8.28-8.716-13.576-.772-2.408-1.154-4.888-1.367-7.426z"/><path fill="#FFF" d="M110.229 537.288c2.136-9.49 7.592-16.405 16.047-20.866 8.488-4.479 17.292-4.937 26.327-1.264-.642-1.106-1.221-2.117-1.93-3.046-6.01-7.876-13.812-12.025-23.869-11.352-5.548.372-10.437 2.428-14.479 6.27-5.427 5.158-8.359 11.348-7.338 18.999.567 4.256 2.513 7.909 5.242 11.259z"/><path fill="#FFF" d="M144.7 565.703c.042.007.089.028.129.019.158-.038.315-.084.472-.13 4.862-1.438 9.039-3.995 12.421-7.77 5.068-5.656 7.515-12.254 6.665-19.876-.706-6.332-3.664-11.487-8.821-15.231-5.818-4.226-12.34-5.26-19.314-3.792-1.475.312-2.912.742-4.332 1.379 10.052 2.795 16.688 9.136 19.519 19.059 2.846 9.97.533 18.847-6.739 26.342z"/><path fill="#00CC7A" d="M99.129 524.65c.213 2.538.595 5.018 1.368 7.425 1.702 5.296 4.65 9.794 8.716 13.576 1.768 1.645 3.702 3.063 5.765 4.314.865.526 1.172 1.28.968 2.268-.359 1.737-.714 3.474-1.091 5.207-.111.51-.033.934.409 1.233.429.29.844.16 1.239-.102 1.908-1.263 3.834-2.499 5.717-3.798 1.131-.781 2.27-1.116 3.678-.872 5.686.985 11.159.287 16.334-2.345 1.356-.689 2.604-1.556 3.792-2.508.157-.125.326-.236.554-.399.036.815-.156 1.511-.29 2.205-1.725 8.923-9.155 16.111-18.16 17.625-2.558.43-5.128.286-7.688.197-3.671-.13-7.292-.673-10.81-1.788-4.789-1.521-9.025-3.911-12.293-7.82-2.682-3.209-4.193-6.922-4.689-11.053-.65-5.405.479-10.536 2.453-15.531 1.081-2.738 2.467-5.321 4.028-7.834z"/><path fill="#00CC7A" d="M110.229 537.288c-2.729-3.35-4.674-7.003-5.242-11.259-1.021-7.651 1.911-13.841 7.338-18.999 4.042-3.842 8.93-5.897 14.479-6.27 10.057-.674 17.858 3.476 23.869 11.352.709.929 1.289 1.939 1.93 3.046-9.034-3.673-17.838-3.216-26.327 1.264-8.455 4.461-13.911 11.376-16.047 20.866z"/><path fill="#00CC7A" d="M144.7 565.703c7.272-7.495 9.585-16.372 6.739-26.343-2.832-9.923-9.467-16.264-19.519-19.059 1.42-.637 2.857-1.067 4.332-1.379 6.974-1.468 13.496-.434 19.314 3.792 5.158 3.744 8.116 8.899 8.821 15.231.85 7.622-1.597 14.22-6.665 19.876-3.383 3.774-7.559 6.332-12.421 7.77-.157.046-.314.092-.472.13-.04.01-.087-.011-.129-.018z"/></g></g></g></switch></svg>