<svg xmlns="http://www.w3.org/2000/svg" width="436.354" height="583.354"><switch><g><path fill="#222" stroke="#FFF" stroke-miterlimit="10" d="M.677 485.341v79.148c0 10.044 6.492 18.188 14.5 18.188h406c8.008 0 14.5-8.144 14.5-18.188v-79.148h-435z"/><path fill="none" stroke="#231815" stroke-width="1.353" stroke-miterlimit="10" d="M435.677 564.489c0 10.044-6.492 18.188-14.5 18.188h-406c-8.008 0-14.5-8.144-14.5-18.188V18.864C.677 8.819 7.169.676 15.177.676h406c8.008 0 14.5 8.143 14.5 18.188v545.625z"/><text transform="translate(38.005 440.34)"><tspan x="0" y="0" fill="#231815" font-family="'FZLTZHUNHJW--GB1-0'" font-size="24">打开手机快</tspan><tspan x="120" y="0" fill="#231815" font-family="'FZLTZHUNHJW--GB1-0'" font-size="24" letter-spacing="6">手</tspan><tspan x="150" y="0" fill="#231815" font-family="'FZLTZHUNHJW--GB1-0'" font-size="24">APP</tspan><tspan x="204.75" y="0" fill="#231815" font-family="'FZLTZHUNHJW--GB1-0'" font-size="24" letter-spacing="6">,</tspan><tspan x="218.344" y="0" fill="#231815" font-family="'FZLTZHUNHJW--GB1-0'" font-size="24">扫码后关注我</tspan></text><text transform="translate(50.605 131.677)"><tspan x="0" y="0" fill="#50525A" font-family="'SourceHanSerifCN-Bold-GBpc-EUC-H'" font-size="22.6">品干</tspan><tspan x="45.2" y="0" fill="#50525A" font-family="'SourceHanSerifCN-Bold-GBpc-EUC-H'" font-size="22.6" letter-spacing="5">货,</tspan><tspan x="86.671" y="0" fill="#50525A" font-family="'SourceHanSerifCN-Bold-GBpc-EUC-H'" font-size="22.6">来我</tspan><tspan x="131.871" y="0" fill="#50525A" font-family="'SourceHanSerifCN-Bold-GBpc-EUC-H'" font-size="22.6" letter-spacing="5">家,</tspan><tspan x="173.343" y="0" fill="#50525A" font-family="'SourceHanSerifCN-Bold-GBpc-EUC-H'" font-size="22.6">我是干货分享</tspan><tspan x="308.939" y="0" fill="#50525A" font-family="'SourceHanSerifCN-Bold-GBpc-EUC-H'" font-size="22.6" letter-spacing="5">家</tspan><tspan x="337.189" y="0" fill="#50525A" font-family="'SourceHanSerifCN-Bold-GBpc-EUC-H'" font-size="22.6">!</tspan></text><text transform="translate(122.777 75.357)" fill="#030000" font-family="'SourceHanSerifCN-Bold-GBpc-EUC-H'" font-size="36" letter-spacing="2">干货分享家</text><g><path fill="#FFF" d="M225.015 326.419h4.557v-4.558h4.559v-4.559h-9.116v4.559zM193.107 312.743v-4.556h4.558V299.069h-4.558v4.56h-4.559V317.302h4.559zM266.038 248.931h4.558v4.558h-4.558zM206.781 326.419h4.56v4.558h-4.56zM215.898 330.977h4.558v4.559h-4.558zM252.363 212.464v-4.557h-4.559v9.116h4.559zM252.363 198.791h4.557v4.558h-4.557zM234.131 330.977v-4.558h-4.559v4.558h-4.557v4.558h13.673v-4.558zM243.247 326.419v9.116h4.557v4.559h13.675v-4.559h-9.116v-4.558h-4.559v-4.558h4.559v-4.558h-4.559v-4.559h-4.557v4.559zM197.665 189.675v-4.559h-4.558v9.116h9.117v-4.557z"/><path fill="#FFF" d="M261.479 203.348h-4.559v9.116h4.559v-4.557zM170.316 340.094h4.558v4.559h-4.558zM170.316 353.768h4.558v4.559h-4.558zM261.479 308.187h4.559v4.557h-4.559zM252.363 276.279h-4.559v9.117h4.559v-4.559zM256.92 280.837h4.56v4.559h-4.56zM138.409 267.163h-4.558v9.116h4.558v4.558h4.558v-9.116h-4.558zM174.874 349.209v4.559h4.559v4.558h4.558v-9.117h-4.558v-4.557h-4.559zM256.92 299.069v4.56h4.559v-9.117h-4.559zM252.363 285.396h4.557v4.558h-4.557zM161.2 244.372h4.559v4.559H161.2zM266.038 207.907h4.558v4.558h-4.558zM188.548 258.046h4.559v4.558h-4.559zM183.991 262.604h4.557v4.559h-4.557zM179.433 212.464v-4.557h-4.559v9.116h4.559zM179.433 239.814h4.559v4.557h-4.559zM179.433 221.582v13.674h4.558v-18.233h-4.558zM193.107 248.931h-4.559v4.557h9.117v-4.557zM183.991 244.372h4.557v4.559h-4.557zM165.758 239.814h4.558v4.557h-4.558zM256.92 189.675h-4.557v4.557h9.116v9.116h4.559v-18.232h-4.559v4.559zM234.131 258.046v-4.558h4.557v-4.557h-9.116v-4.559h4.559v-9.116h4.557v-4.559h4.559v-4.558h-4.559v-4.557h4.559v4.557h4.557v4.558h4.559v13.675h-9.116v-4.558h4.557v-4.558h-9.116v13.675h4.559v4.557h4.557v-4.557h4.559v4.557h-4.559v4.558h-9.116v13.675h4.559v4.558h4.557v-9.116h4.559v-4.559h9.116v-4.558h-4.559v-13.674h4.559v4.559h4.559v-13.675h-4.559v4.558h-4.559v-9.117h4.559v-4.558h-9.116v-4.557h-4.559v-4.559h-13.673v9.116h-9.116v22.792h-4.559v4.557h4.559v4.558h4.557z"/><path fill="#FFF" d="M229.572 267.163h4.559v4.558h-4.559zM215.898 253.488v-4.557h4.558v-4.559h-13.675v9.116h-9.116v4.558H211.341v-4.558zM238.688 212.464h4.559v-4.557h4.557v-4.559h-4.557v-4.557h-13.675v4.557h4.559v4.559h4.557zM225.015 194.232v-4.557h-4.559v9.116h4.559zM188.548 267.163h4.559v4.558h-4.559zM220.456 207.907h4.559v4.558h-4.559zM197.665 271.721h-4.558v4.558h9.117v-9.116h-4.559zM202.224 207.907h4.558v4.558h-4.558zM152.083 321.861h-4.558v4.558h9.116v-4.558zM302.503 239.814h4.558v4.557h-4.558zM302.503 276.279v-9.116h-4.559v-4.559h-4.558v4.559h-4.557v4.558h9.115v9.116h4.559zM302.503 353.768h4.558v4.559h-4.558zM275.154 303.629v-9.117h-9.116v13.675h4.558v-4.558z"/><path fill="#FFF" d="M297.944 358.326h4.559v4.558h-4.559zM211.341 294.512h4.557v4.558h-4.557zM129.292 226.139h4.559v4.558h-4.559zM138.409 207.907h13.675v-22.792h-22.792v22.792h9.117zm-4.558-9.116v-9.116h13.674v13.674h-13.674v-4.558zM152.083 312.743h4.558v4.559h-4.558z"/><path fill="#FFF" d="M120.177 176v196.001h196V176h-196zm41.023 31.907h4.559v4.558H161.2v-4.558zm0 9.116h4.559v4.559H161.2v-4.559zm-36.466-9.116v-27.35h31.908v31.908h-31.908v-4.558zm0 18.232v-4.558h9.117v-4.559h4.558v4.559h4.558v-4.559h13.675v4.559h-4.558v4.558h4.558v4.558h-13.675v4.559h-13.675v-4.559h-4.558v-4.558zm0 68.373h9.117v4.558h-9.117v-4.558zm0 13.675h4.558v-4.558h4.559v9.115h-9.117v-4.557zm31.907 31.907V367.443h-31.908v-31.908h31.908v4.559zm0-9.117h-13.675v-4.558h-13.675v4.558h-4.558v-4.558h4.558v-4.558h-4.558v-4.56h4.558v4.56h18.233v-9.119h4.559v-4.557h4.558v4.557h4.559v13.677h-4.559v4.558zm-9.116-31.908h9.117v4.56h-9.117v4.558h-4.558V299.069h-4.558v-4.558h4.558v4.558h4.558zm-4.558 13.674v4.559h-4.558v-4.559h4.558zm22.791-45.58H161.2v-4.559h9.117v4.559h4.558v4.558h-4.558V285.397h4.558v4.558h-4.558v4.558h-4.558v-9.116H161.2V271.721h9.117v-4.558h-4.559zm13.675 36.466v4.558h-4.559v-4.558h4.559zm-13.675-4.56h4.558V312.744h-4.558v-9.115H161.2v-4.56h4.558zm4.558 22.792v4.558h-4.558v-4.558h4.558zm-4.558 9.116v4.559H161.2v-4.559h4.558zm68.373 36.463h-9.117v-4.557h9.117v4.557zm77.486-109.394v13.675h-4.557v4.559h4.557v13.675h-4.557v4.558h4.557V308.189h-9.115v-4.558h-4.559v-4.56h4.559v4.56h4.558V294.513h-4.558v-4.558h4.558v-4.558h-9.117v-4.559h-9.116v-9.117h-4.56v9.117h-4.558v4.559h4.558v13.674h-4.558v4.56h4.558v4.558h-4.558v9.116h-4.558v-9.116h-4.559v9.116h-4.558v4.56h4.558v4.558h4.559v-4.558h9.116v4.558h4.56v-4.558h4.557v-13.676h-4.557v-4.558h4.557v4.558h4.559v4.557H311.617v9.119h-18.233v9.116h4.559v4.559h4.559v-9.117h9.115V340.099h-13.674v4.559h-4.559v13.675h4.559v-9.118h9.117v-4.557h4.557v13.675h-4.557v4.558h4.557v4.557h-13.674v-4.557h-4.559v4.557h-9.117v-4.557h-4.558v-4.558h4.558v-4.559h4.56v-4.559H279.709v4.559h-4.558v-4.559h-4.559v-4.557h-4.558v9.116h4.558v4.559h4.559v9.115h-9.117v-4.557h-4.559v4.557h-4.56v-13.674h-4.557v-9.116h-9.117v4.557h4.557v9.118h-4.557v9.115h-4.559v-9.115h4.559v-9.118h-4.559v4.559h-13.675v4.559h-4.559v-4.559h-4.558v-4.559h-4.557v4.559h-4.56v4.559h9.117v9.115h-9.117v-4.557h-4.558v4.557H188.539v-4.557h-4.557v4.557h-18.234v-4.557h4.558v-4.558H161.2v-4.559h9.117v-9.116h-4.558v4.557H161.2v-9.116h9.117v-9.118h9.117v-4.558h4.559v-4.558h4.557v-4.56h-9.116v4.56h-4.559v-9.119h9.118v-13.675h-4.559v-4.558h4.559v4.558h4.557v-4.558h9.117v4.558h4.559V317.305h4.558v4.56h4.56v4.558h4.557V317.305h9.117v-4.559h4.558v-13.675h-4.558V308.189h-4.559v-4.558h-9.115v9.115h-4.56v-18.233h-4.558v-4.558H211.344v-4.558h4.557v4.558h9.117v-4.558h4.558v4.558h-4.558v4.558h9.117v-4.558h4.558v4.558h-4.558v4.558h4.558v4.56h4.559v4.558h-4.559v9.116h4.559v-4.559h9.117v-4.557h-4.56v-4.558h4.56V294.513h-4.56v-4.558h-4.557v-4.558h-9.117v-4.559h4.558v-4.558h-9.117v4.558h-9.117v-4.558h-4.558v-4.559h4.558v4.559h9.117v-4.559h-4.558v-13.675H211.344v4.558H202.226v4.559h4.558v4.558h4.56v4.559h-4.56v9.117h-9.117v4.558h-18.233v-4.558h13.675v-9.117h-4.559v-4.559h-4.557v9.117h-4.559v-9.117h4.559v-4.558h-4.559v-9.117h-4.559v-4.558h-4.558v4.558h-4.558v-4.558H161.2v4.558H147.524v4.558h9.117v4.559h-13.675v4.558h4.558v4.559h4.559v-4.559h4.558v4.559h-4.558v4.558h4.558v4.559h-4.558v4.558h4.558v4.558h-4.558v-4.558h-4.559v-9.117h-4.558v9.117h-4.558v-9.117h-4.558v4.559h-4.559v4.558h-4.558v-4.558h4.558v-4.559h-4.558v-13.675h9.117v-4.559h-4.559v-4.558h4.559v-4.558h-4.559v-9.117h4.559v-4.557h4.558v9.116h-4.558v4.558h4.558v4.558h-4.558v4.558h4.558v4.559h4.558v-13.675h13.675v-4.558h-9.117v-13.675h9.117v4.559h-4.558v4.557h9.117v-9.116h4.559v-4.559h4.558v-9.116h4.558v-4.559h-4.558v-9.117h4.558v-9.117h-4.558v4.558h-4.558v-4.558H161.2v-4.558h4.559v-9.117H161.2v-4.558h9.117v9.117h4.558v-9.117h9.118v4.558h-4.559v4.559h-4.559v4.558h4.559v4.558h4.559v4.558h-4.559v4.559h4.559v9.117h4.557v-9.117h4.559v18.234h9.117v4.558h4.558v4.559h-9.117v9.116h9.117v-4.557h13.675v-4.559h-9.115v-4.559h9.115v-9.116h9.117v-4.559h4.559v-9.117h-4.559v4.558h-4.558v4.559h-4.559v-4.559h-4.558v-4.558h4.558v-9.117h-4.558v-4.558h-4.557v4.558h-4.56v-4.558h-4.558v4.558h-4.559v4.558h-4.558v-4.558h-4.559v-18.233h9.117v4.558h4.559v4.559h4.558v4.558h4.56v-13.675h4.557v4.558h9.117v4.559h4.558v4.558h9.117v-4.558h4.559v-4.559H229.576v-4.558H243.252v4.558h4.557v-4.558h4.56v4.558h9.117v-4.558H275.162v13.675h-4.559v9.116h4.559V217.021h4.558v4.559h4.558v4.558h4.56V239.814H279.72v-4.559h4.558v-4.559h-4.558v-4.558h-9.117v-9.117h-4.558v-4.559h-4.559v9.118h4.559v13.675h4.558v-4.559h4.559v22.792h-4.559v4.558h4.559v4.558h-4.559v-4.558h-4.558v4.558h-4.559v4.559h-9.117v4.558h4.557v4.559h4.56v4.558h4.559v4.559h-4.559v9.116h4.559v-4.558h13.675v-4.558h-4.558v-4.559h-4.559v-4.558h-4.558v-4.559h4.558v-4.558h4.559v4.558h-4.559v4.559h9.117V244.371h4.558v9.117h4.56v-4.558h4.557v4.558h-4.557v4.558h-4.56v9.117h4.56v-4.559h4.557v-4.558h4.559v4.558h4.559v-4.558h4.558v-4.558h4.557v4.558zm-18.231 27.35v4.558h-4.557v-4.558h4.557zm-4.557 27.347v4.559h-4.56v-4.559h4.56zm-72.931-45.58v-4.559h4.558v4.559h-4.558zm-18.233-54.699v-4.558h4.559v-4.559h4.558v4.559h4.56v9.117h4.557v4.559h-18.234v-4.559h4.559v-4.559h-4.559zm113.952 27.35v9.116h-9.115v-4.559h-9.118v-9.116h4.559v4.559h4.559v-4.559h9.115v4.559zm-9.114-18.232v9.116h-4.559v-4.558h-4.559v-9.117h4.559v4.559h4.559zm9.114 0v9.116h-4.557v-13.675h4.557v4.559zm0-36.466v27.35H279.709v-31.908h31.908v4.558z"/><path fill="#FFF" d="M297.944 185.116H284.268v22.792H307.061v-22.792h-9.117zm4.559 9.116v9.116h-13.675v-13.674h13.675v4.558zM142.967 340.094h-13.675v22.792h22.792V340.094h-9.117zm4.558 9.115v9.118h-13.674v-13.675h13.674v4.557zM138.409 226.139h4.558v4.558h-4.558zM188.548 230.697v4.559h4.559v-9.117h-4.559zM288.829 358.326h4.557v4.558h-4.557zM293.386 335.535h4.559v4.559h-4.559zM243.247 335.535h-4.559v4.559h-18.232v4.558h9.116v4.557h4.559v-4.557h9.116v-4.558zM275.154 340.094v4.559H288.83v-13.677H275.154v9.118zm4.558-4.559h4.558v4.559h-4.558v-4.559zM215.898 344.652v-4.558h-9.117v-9.117h-4.557v4.558h-4.559v4.559h4.559v4.558h-4.559v-4.558h-4.558v4.558h-4.559v-4.558h4.559v-9.117h9.117v-9.116h-4.559v4.558h-4.558v-4.558h-4.559v4.558h-4.557v4.558h4.557v4.558h-13.674v4.559h4.559v4.558h4.558v4.557h4.557v13.675h9.117v-4.558h-4.558v-4.558H206.781v-4.559h4.56v-4.557zM215.898 344.652h4.558v4.557h-4.558zM220.456 294.512h4.559v4.558h-4.559zM261.479 326.419v4.558h9.117v-4.558h-4.558v-4.558h-4.559zM129.292 276.279h4.559v4.558h-4.559zM256.92 344.652h4.56v4.557h-4.56z"/><path d="M238.688 180.558h-9.116v4.558h13.675v-4.558zM302.503 180.558H279.71v31.908h31.908v-31.908h-9.115zm4.558 9.117v18.233H284.268v-22.792H307.061v4.559zM179.433 185.116h4.558v-4.558h-9.117v9.117h4.559zM197.665 185.116h4.559v4.559h-4.559z"/><path d="M266.038 189.675v13.673h-4.559v9.116h4.559v-4.557h4.558v4.557h-4.558v4.559h4.558v9.116h9.116v4.558h4.558v4.559h-4.558v4.558h9.117v-13.675h-4.559v-4.557h-4.558v-4.559h-4.558v-13.675h-4.558v-9.116h4.558v-13.674h-13.675v4.558h4.559zM202.224 189.675h4.558v4.558h-4.558zM220.456 189.675h4.559v-4.559h-9.117v-4.558h-4.557V194.232h4.557v4.559h4.558v-4.559zM293.386 189.675h-4.557v13.673h13.674v-13.673h-4.559zM193.107 194.232v-9.116h4.558v-4.558h-9.117v18.233h4.559v4.557h4.558v-4.557h4.559v-4.559h-4.559z"/><path d="M206.781 194.232h4.56v4.558h-4.56zM142.967 203.348h4.558v-13.673h-13.674v13.673h4.558zM179.433 203.348h4.558v-4.557h-4.558v-4.559h-4.559v-4.557h-4.558v-9.117H161.2v4.558h4.558v9.116H161.2v4.559h4.558v4.557h4.558v-4.557h4.558v9.116h4.559zM202.224 203.348h4.558v4.559h-4.558zM229.572 203.348v-4.557h13.675v4.557h4.557v4.559h4.559v9.116h-4.559v4.559h4.559v4.557h9.116v4.558h-4.559v9.117h4.559v-4.558h4.559V221.582h-4.559v-9.118h-4.559v-9.116h-4.557v-4.557h4.557v4.557h4.559v-9.116h-9.116v-4.557h9.116v-4.559h-9.116v-4.558h-4.559v4.558h-4.557v4.559h-4.559v4.557h-9.116v-4.557h-4.557v9.116h-4.559v9.116h4.559v4.557h4.557v-4.557h4.559v-4.559z"/><path d="M133.851 212.464h22.791v-31.908h-31.908v31.908h9.117zm-4.559-9.116v-18.233h22.792v22.792h-22.792v-4.559zM161.2 207.907h4.559v4.558H161.2zM174.874 207.907h-4.558v9.116h4.558v-4.559zM197.665 207.907h4.559v4.558h-4.559zM215.898 207.907h4.558v4.558h-4.558zM179.433 217.023h4.558v-9.116h-4.558v4.557zM220.456 212.464h4.559v4.559h-4.559zM243.247 217.023h4.557v-9.116h-4.557v4.557h-4.559v-4.557h-4.557v9.116h4.557zM161.2 217.023h4.559v4.559H161.2z"/><path d="M197.665 217.023v4.559H215.898v-4.559h-4.557v-9.116h-4.56v4.557h-4.557v4.559zM293.386 217.023v9.116h4.558v4.558h4.559v-9.115h-4.559v-4.559zM307.061 221.582v9.115h4.556v-13.674h-4.556zM238.688 221.582h4.559v4.558h-4.559zM129.292 226.139h4.559v4.558h-4.559v4.559h13.675v-4.559h-4.558v-4.558h4.558v4.558h13.674v-4.558h-4.558v-4.557h4.558v-4.559h-13.674v4.559h-4.558v-4.559h-4.558v4.559h-9.117v9.115h4.558z"/><path d="M247.804 235.256v4.558h-4.557v4.558h9.116v-13.675h-4.559v-4.558h-4.557v4.558h-4.559v4.559h4.559zM302.503 235.256v4.558h4.558v4.558h-4.558v4.559h9.114v-13.675h-4.556zM215.898 244.372h4.558v4.559h4.559v-22.792h9.116v-9.116h-4.559v4.559h-9.116v9.115h-9.115v4.559h9.115v4.558h-13.675v4.558h4.56zM238.688 239.814v-4.558h-4.557v9.116h-4.559v4.559h9.116v-4.559zM266.038 244.372v4.559h4.558v4.557h4.558v-22.791h-4.558v4.559h-4.558v4.558z"/><path d="M297.944 239.814v-4.558h-4.558v9.116h9.117v-4.558zM138.409 248.931v-9.117h-4.558v4.558h-4.559v9.116h4.559v-4.557zM247.804 248.931h4.56v4.558h-4.56zM266.038 248.931h-4.559v-4.559h-4.559v13.674h4.559v4.558h4.559v-4.558h4.558v-4.558h-4.558zM288.829 248.931h4.557v4.558h-4.557zM133.851 253.488h4.558v4.558h-4.558zM220.456 253.488v-4.557h-4.558v4.557h-4.557v4.558h13.674v-4.558zM307.061 258.046h-4.558v4.558h-4.559v4.559h4.559v13.674h-4.559v4.559h9.117v4.558h4.556v-13.675h-4.556v-4.558h4.556v-18.233h-4.556zM129.292 258.046h4.559v4.558h-4.559zM202.224 258.046h-4.559v-4.558h-9.117v-4.557h-4.557v-4.559h-4.558v-4.558h4.558v4.558h4.557v4.559h9.117v4.557h9.116v-9.116h-9.116v-9.116h9.116v-4.559h-4.557v-4.558h-9.117v9.117h-4.559v-9.117h4.559v-18.232h-4.559v9.116h-4.557v18.233h-4.558v-18.233h-4.559v4.559h-4.558v9.115h-4.558v4.559H161.2v9.116h4.558v-4.558h4.558v4.558h-4.558v4.559H161.2v-4.559h-9.117v-4.558h4.558v-4.558h-9.116v13.675h9.116v4.557h-13.674v13.675h13.674v-4.559h-9.116v-4.558H161.2v-4.558h4.558v4.558h4.558v-4.558h4.558v4.558h4.559v9.117h4.558v-4.559h4.557v-4.558h4.559v4.558h-4.559v4.559h4.559v4.558h4.558v-4.558h4.559v-4.559h9.117v-4.558h-4.56zM270.596 258.046h4.559v4.558h-4.559z"/><path d="M293.386 258.046h4.559v4.558h-4.559zM133.851 262.604h4.558v4.559h-4.558zM165.758 262.604H161.2v4.559h9.116v-4.559zM215.898 262.604h4.558v4.559h-4.558zM252.363 262.604v4.559h9.116v-4.559h-4.559zM288.829 262.604h4.557v4.559h-4.557zM138.409 267.163h4.558v4.558h-4.558zM170.316 267.163h4.558v4.558h-4.558zM183.991 267.163h4.557v4.558h-4.557zM247.804 271.721v4.558h4.559v9.117h4.557v-4.559h4.559v-4.558h-4.559v-4.558h-4.557v-4.558h-4.559zM270.596 267.163h4.559v4.558h-4.559z"/><path d="M284.27 267.163v-9.117h4.559v-4.558h-4.559v-9.116h-4.558v31.907h-9.116v4.558h4.558v4.559h4.558v-4.559h4.558v-9.116h4.559v-4.558zM133.851 276.279v-9.116h-9.117v13.674h4.558v-4.558zM152.083 271.721h4.558v4.559h-4.558zM161.2 271.721v13.675h4.558v9.116h4.558v-4.558h4.558v-4.558h-4.558v-13.675h-4.558zM179.433 276.279v4.558h4.558v-9.116h-4.558zM188.548 271.721h4.559v4.559h-4.559z"/><path d="M202.224 276.279h-9.117v9.117h-13.674v4.558h18.232v-4.558h9.116v-9.117h4.56v-4.558h-4.56v-4.558h-4.557v4.558zM215.898 271.721h4.558v4.559h-4.558zM266.038 271.721h4.558v4.559h-4.558zM297.944 271.721h-9.115v9.116h9.115v-4.558zM133.851 276.279h4.558v4.558h-4.558zM142.967 280.837h4.558v9.117h4.558v-4.558h4.558v-4.559h-4.558v-4.558h-4.558v-4.558h-4.558v4.558zM220.456 276.279v4.558h9.116v-4.558h-4.557zM129.292 280.837h4.559v4.559h-4.559zM138.409 285.396v4.558h4.558v-9.117h-4.558zM261.479 280.837h4.559v4.559h-4.559zM124.734 285.396h4.558v4.558h-4.558zM225.015 285.396h4.558v4.558h-4.558zM288.829 285.396h4.557v4.558h-4.557zM152.083 289.954h4.558v4.558h-4.558zM234.131 289.954h4.558v4.558h-4.558zM275.154 289.954h-9.116v4.558h9.116v9.117h-4.558v4.558h4.558v9.115h4.558v-9.115h4.558v-4.558h-4.558v-4.56h4.558v-13.673h-4.558v4.558zM302.503 289.954h4.558v4.558h-4.558zM133.851 299.069v-4.557h-9.117v4.557h4.558zM138.409 294.512h4.558v4.558h-4.558zM179.433 294.512h4.559v4.558h-4.559zM220.456 294.512h4.559v-4.558h-9.117v-4.558h-4.557v4.558H202.223v4.558h4.558V312.745h4.56v-9.115h9.115v4.558h4.559V299.07h-4.559v-4.558zm-9.115 4.557v-4.558h4.557v4.558h-4.557zM161.2 303.629h4.558v9.114h4.558v-13.674H161.2zM297.944 299.069h4.559v4.56h-4.559z"/><path d="M307.061 303.629h-4.558v4.558h9.114V294.512h-4.556v4.557zM142.967 308.187h4.558v-4.558h9.116v-4.56h-13.674v4.56zM174.874 303.629h4.559v4.558h-4.559zM288.829 303.629h4.557v4.558h-4.557zM133.851 312.743v-9.114h-4.559v4.558h-4.558v4.556h4.558zM152.083 308.187h4.558v4.557h-4.558z"/><path d="M188.548 308.187v-4.558h4.559v-4.56h4.558v-4.557h-9.117v4.557h-4.557v13.674h-9.117v9.118h4.559v-4.559h9.115v-4.559zM266.038 312.743h-4.559v-4.557h4.559V294.51h-4.559V303.628h-4.56V294.51h4.56v-9.116h-4.56v4.558h-4.557v-4.558h-4.56v-9.117h-4.557v-4.559h-4.559v-13.675h9.116v-4.558h-4.557v-4.558h-4.559v4.558h-4.558v4.558h-9.117v13.675h4.558v-4.558h4.559v4.558h-4.559v4.559h9.117v4.558h-4.558v4.559h9.117v4.558h4.557v4.558h4.56V303.628h-4.56v4.558h4.56v4.557h-9.117v4.559h4.557v4.56h4.56v4.558h-4.56v4.558h4.56v4.559h9.117v4.559h-13.677v-4.559h-4.557v9.118h9.117v9.116h4.557V367.445h4.56v-4.557h4.559v4.557h9.117v-9.115h-4.559v-4.559h-4.558v-9.116h4.558v4.557h4.559v4.559h4.558v-4.559H288.831v4.559h-4.56v4.559h-4.558v4.558h4.558v4.557h9.117v-4.557h-4.557v-4.558h4.557v-13.675h4.559v-4.559h-4.559v-4.559h4.559v-4.559h-4.559v-9.116h-4.557v4.558h-4.56v-4.558h-9.116v4.558h-4.559v4.558h-9.117v-9.116h4.559v-4.56h4.558v-9.116h-4.558v4.557zm-4.559 36.466h-4.56v-4.557h4.56v4.557zm18.233-18.232H288.83v13.677H275.154v-13.677h4.558zM138.409 312.743h4.558v4.559h-4.558z"/><path d="M234.131 317.302v4.559h-4.559v4.558h4.559v4.558h4.557v4.558h4.559v-18.233h-4.559v-9.115h4.559v-4.558h-4.559v-4.56h-4.557v-4.557h-9.116v4.557h4.557v13.674h-4.557v4.559h4.557zM284.27 312.743h4.56v4.559h-4.56zM124.734 317.302h4.558v4.56h-4.558zM302.503 321.861h9.114v-9.118H297.944v-4.556h-4.558v13.674h4.558zM161.2 321.861v-9.118h-4.559v4.559h-4.558v-4.559h-4.558v9.118h9.116v4.558h4.559zM165.758 321.861h4.558v4.558h-4.558zM183.991 321.861h4.557v4.558h-4.557zM193.107 326.419h4.558v-4.558h4.559v9.116h4.557v-4.558h4.56v-4.558h-4.56v-4.559h-4.557v-18.233h-4.559V308.187h-4.558v9.115h-4.559v4.559h4.559zM266.038 321.861h4.558v4.558h-4.558zM124.734 326.419h4.558v4.558h-4.558z"/><path d="M147.525 326.419v-4.558h-18.233v4.558h13.675v4.558h13.674v-4.558h-4.558zM161.2 330.977h4.559v4.559H161.2zM193.107 330.977v9.117h4.558v-4.559h4.559v-4.558h-4.559zM206.781 330.977v9.118h9.117v4.559h4.558v-4.559h18.234v-4.559h-13.675v-4.559h4.558v-4.558h-4.558V317.301h-9.117V326.419h-4.557v4.558h-4.56zm13.675 0v4.559h-4.558v-4.559h4.558zM147.525 335.535h-22.791v31.908h31.908v-31.908h-9.117zm4.558 9.117v18.233h-22.792V340.093h22.792v4.559zM174.874 335.535H188.548v-4.558h-4.557v-4.558h-4.558v4.558h-9.117v9.117h4.558zM279.712 335.535h4.558v4.559h-4.558zM302.503 340.094h9.114v-13.675h-9.114v9.116h-4.559v4.559zM165.758 340.094H161.2v9.115h4.558v-4.557h4.558v-4.558z"/><path d="M174.874 340.094h4.559v4.559h-4.559zM188.548 340.094h4.559v4.559h-4.559zM197.665 340.094h4.559v4.559h-4.559zM138.409 344.652h-4.558v13.674h13.674V344.652h-4.558zM179.433 344.652h4.559v4.557h-4.559zM211.341 344.652h4.557v4.557h-4.557zM234.131 344.652v4.557h-4.559v-4.557h-9.116v4.557h-4.558v4.559h4.558v4.558h4.559v-4.558h13.673v-4.559h4.559v-4.557h-4.559zM174.874 349.209v-4.557h-4.558v9.116h4.558zM206.781 349.209h4.56v4.559h-4.56zM165.758 353.768H161.2v4.558h9.116v-4.558z"/><path d="M188.548 353.768v-4.559h-4.557v9.117h-4.558v-4.558h-4.559v4.558h-4.558v4.558h-4.558v4.556h18.233v-4.556h4.557v-4.558z"/><path d="M197.665 353.768h-4.558v4.558h4.558v4.558h-9.117v4.556H202.224v-4.556h4.557v4.556h9.117v-9.114h-9.117v-4.558h-4.557zM243.247 358.326h4.557v-9.117h-4.557v4.559zM302.503 353.768h4.558v4.558h4.556V344.652h-4.556v4.557h-9.117v9.117h4.559zM238.688 362.884v4.556h4.559v-9.114h-4.559zM293.386 358.326h4.559v4.558h-4.559z"/><path d="M302.503 362.884h-4.559v4.556H311.617v-4.556h-4.556v-4.558h-4.558zM225.015 362.884v4.556h9.116v-4.556h-4.559z"/></g><g><circle fill="#FFF" cx="218.177" cy="273.677" r="36.431"/><path fill="none" stroke="#030000" stroke-width="2.857" stroke-linecap="round" stroke-miterlimit="10" d="M235.851 282.628c-.701-8.991-8.218-16.068-17.389-16.068-9.17 0-16.688 7.078-17.39 16.068"/><path fill="#030000" d="M220.822 302.507a16.585 16.585 0 0 1-8.074-2.303l-.168-.106c-.21-.159-5.369-3.826-14.521-1.854a1.451 1.451 0 0 1-1.371-.373 1.269 1.269 0 0 1-.314-1.314 1.382 1.382 0 0 1 1.069-.894c9.952-2.145 15.964 1.722 16.82 2.291 6.266 3.442 10.036 1.191 10.189 1.099l.126-.065 10.051-5.071c3.14-1.456 3.841-2.396 3.952-2.583.1-.463 0-.78-.111-.939a5.21 5.21 0 0 0-3.351-.291l-10.498 4.144c-.173.07-.358.106-.547.107h-10.779c-.774 0-1.401-.594-1.401-1.325s.627-1.323 1.401-1.323h8.549c1.318-.173 1.725-.517 1.781-.636.056-.119-.14-.648-.379-.979-11.857-5.693-26.295.105-26.436.172-.698.248-1.479-.064-1.777-.709-.298-.646-.01-1.397.656-1.714.645-.265 16.008-6.461 29.127 0 .153.077.293.18.407.305a4.845 4.845 0 0 1 1.189 2.476l7.725-3.045.252-.08c.688-.132 4.205-.729 6.013.967.88.854 1.23 2.074.926 3.229-.084 1.021-1.163 2.584-5.452 4.569l-9.952 5.031a10.272 10.272 0 0 1-5.102 1.214zm0 0M229.634 255.688c.136-1.079.261-2.331.135-3.69-.328-3.657-2.364-6.085-5.091-7.453-1.859-.933-4.04-1.373-6.217-1.373-1.91 0-3.822.339-5.519 1.053-3.071 1.292-5.433 3.81-5.788 7.773a8.584 8.584 0 0 0 0 1.62c.065.685.148 1.354.246 1.986a.92.92 0 0 0-.126.021c-.794.196-1.155 1.504-.805 2.922.349 1.417 1.275 2.408 2.07 2.213h.001c1.275 4.273 5.241 7.398 9.923 7.398 4.674 0 8.636-3.115 9.917-7.379.768.089 1.631-.875 1.965-2.231.305-1.24.068-2.395-.526-2.797-.026-.018-.08-.059-.185-.063z"/><path fill="#FFF" d="M227.03 260.822a9.704 9.704 0 0 0 .422-1.699c.63-3.147.231-5.488-.141-6.444l-.002-.002c-.112-.354-.266-.639-.471-.828a.94.94 0 0 0-.533-.247 1.22 1.22 0 0 0-.338.013c-3.785.675-10.203-1.917-12.187-2.777-.384-.167-.602-.268-.602-.268s-.043.292-.181.714c-.246.75-.791 1.911-1.932 2.576-1.868 1.093-1.981 3.272-1.808 5.18.067.899.104 1.18.263 2.19.054.338.105.632.146.813.913 4.083 4.486 7.129 8.755 7.129 3.976 0 7.34-2.715 8.604-6.346v.001c.003-.001.004-.003.005-.005z"/><path fill="#030000" d="M215.494 255.831c0 .918-.706 1.695-1.554 1.695-.848 0-1.554-.707-1.554-1.695 0-.918.706-1.696 1.554-1.696.848 0 1.554.778 1.554 1.696M225.255 255.831c0 .918-.706 1.695-1.555 1.695-.848 0-1.554-.707-1.554-1.695 0-.918.706-1.696 1.554-1.696.849 0 1.555.778 1.555 1.696"/><path fill="#FFF" d="M223.798 255.399c0 .255-.256.596-.597.596s-.596-.256-.596-.596c0-.341.255-.596.596-.596.341.085.597.34.597.596"/><path fill="#231815" d="M222.026 261.686h-6.508c-.318 0-.55.248-.507.522.133.75.538 1.417 1.119 1.918a1.468 1.468 0 0 1 1.449-1.334c.5 0 .935.247 1.193.626a1.48 1.48 0 0 1 1.193-.626c.752 0 1.377.585 1.449 1.334.58-.502.985-1.169 1.118-1.918.044-.274-.187-.522-.506-.522z"/><g fill="#E50012"><path d="M222.705 280.546l-2.337-10.2a.295.295 0 0 0-.296-.237h-2.66a.296.296 0 0 0-.296.237l-2.188 10.171a.296.296 0 0 0 .119.296l3.429 2.631a.294.294 0 0 0 .354 0l.128-.104.138.104c.105.079.25.079.355 0l3.163-2.602a.298.298 0 0 0 .091-.296zM216.673 269.666a.293.293 0 0 0 .236.118h.57c.017.001.034.002.05 0H220.485a.289.289 0 0 0 .236-.118l.917-1.242a.294.294 0 0 0-.059-.414l-.177-.059H216.138c-.112 0-.214.063-.264.164s-.039.22.027.31l.772 1.241zM221.415 264.126a1.467 1.467 0 0 0-1.449-1.334 1.48 1.48 0 0 0-1.193.626 1.434 1.434 0 0 0-1.193-.626 1.47 1.47 0 0 0-1.449 1.334 4.031 4.031 0 0 0 2.642.957 4.028 4.028 0 0 0 2.642-.957z"/></g><path fill="#FFF" d="M214.067 255.348c0 .255-.256.596-.596.596s-.596-.256-.596-.596c0-.341.256-.597.596-.597.34.085.596.341.596.597"/><g><path fill="#FFF" d="M239.149 513.049h-.063l-3.961.007.004 3.686h-7.621a1.25 1.25 0 0 0-1.258 1.177l-.004.063v3.925h8.887v7.037l-.012 2.86-.008.318-.008.312a39.557 39.557 0 0 1-.076 1.666l-.021.292-.059.675h-9.241a1.247 1.247 0 0 0-1.259 1.18v3.984h10.184c-1.875 5.229-5.374 8.647-10.188 10.533l1.261 4.245c.124.41.728.528 1.017.41 3.456-1.364 9.555-4.805 12.649-13.004 2.74 7.797 9.087 11.432 11.968 12.722l.241.108c.961.416 1.37 0 1.522-.517l1.187-3.965c-1.948-.771-7.719-3.268-10.167-10.533h8.963a1.251 1.251 0 0 0 1.212-1.178v-3.986h-2.5v-17.083a1.25 1.25 0 0 0-1.202-1.238l-.061-.002h-10.186l-.004-2.478v-.044a1.248 1.248 0 0 0-1.134-1.169l-.062-.003zm-18.57 0h-3.962v41.067c0 .664.528 1.208 1.196 1.238l.061.002 3.965-.023v-24.928h3.143a1.253 1.253 0 0 0 1.212-1.18v-3.984h-4.358v-10.998a1.248 1.248 0 0 0-1.194-1.19h-.063v-.004zm76.054.492c-.694.992-2.032 2.118-4.001 2.141H262.15v3.923c0 .644.496 1.172 1.133 1.233l.065.007h16.106v6.767h-14.58a1.25 1.25 0 0 0-1.26 1.18v3.985h15.84v6.153h-19.11a1.25 1.25 0 0 0-1.259 1.18v3.984h20.369v4.581l-.004.084-.004.044-.008.068a1.548 1.548 0 0 1-1.475 1.316l-.072.004h-7.034l1.142 4.214c.138.509.568.883 1.094.944l.063.004h4.904l.106-.004.114-.006c3.546-.198 6.335-3.076 6.395-6.585v-4.665h18.435a1.25 1.25 0 0 0 1.21-1.18v-3.984h-19.645v-6.153h13.74a1.248 1.248 0 0 0 1.21-1.18l.004-.061v-3.924h-14.956v-6.767c1.729.012 4.343.008 7.843-.007 5.701.022 8.621-4.106 9.396-6.011l-3.771-1.61c-.718-.307-1.248-.047-1.508.325zm-83.466 5.125h-3.963v14.076l-.004.449-.003.284a32.614 32.614 0 0 1-1.489 8.877 1.237 1.237 0 0 0 .693 1.496l.061.022 3.849 1.286c1.324-3.664 2.034-7.511 2.111-11.705l.001-.34.002-.332.004-1.383-.004-.002v-11.548a1.252 1.252 0 0 0-1.133-1.174l-.061-.004-.064-.002zm27.191 3.236h6.216v13.164h-6.376l.057-.786c.047-.748.076-1.679.088-2.497l.004-.352.004-.874.007-8.655z"/><path fill="#FF3D13" d="M188.637 533.048c5.671 0 10.266 4.572 10.266 10.209v8.109c0 5.637-4.595 10.209-10.266 10.209h-15.101a10.268 10.268 0 0 1-9.76-7.03l-8.996 4.484a4.998 4.998 0 0 1-6.688-2.21 4.911 4.911 0 0 1-.528-2.219v-14.542c0-2.736 2.231-4.954 4.982-4.954.782 0 1.554.184 2.251.535l8.957 4.507a10.27 10.27 0 0 1 9.781-7.097h15.101v-.001zm-.065 5.255h-14.884a5.123 5.123 0 0 0-5.135 5.022v7.889a5.118 5.118 0 0 0 5.049 5.104h14.882a5.12 5.12 0 0 0 5.133-5.017v-7.893a5.12 5.12 0 0 0-5.045-5.105zm-34.365 3.168a1.354 1.354 0 0 0-1.357 1.326v9.14a1.363 1.363 0 0 0 1.954 1.216l.021-.012 8.443-4.281v-3.028l-8.451-4.216a1.359 1.359 0 0 0-.61-.145zm12.536-38.445a13.904 13.904 0 0 1 12.125 7.063 11.901 11.901 0 0 1 8.108-3.162c6.589 0 11.928 5.309 11.928 11.859s-5.339 11.859-11.928 11.859a11.937 11.937 0 0 1-9.642-4.873 13.887 13.887 0 0 1-10.59 4.873c-7.673 0-13.893-6.183-13.893-13.812s6.218-13.807 13.892-13.807zm0 5.553c-4.589 0-8.305 3.696-8.305 8.257s3.716 8.257 8.305 8.257c4.585 0 8.305-3.696 8.305-8.257s-3.72-8.257-8.305-8.257zm20.232 3.904a6.323 6.323 0 0 0-6.341 6.305 6.323 6.323 0 0 0 6.341 6.305 6.322 6.322 0 0 0 6.343-6.303v-.002a6.323 6.323 0 0 0-6.341-6.305h-.002z"/></g></g></g></switch></svg>