<svg xmlns="http://www.w3.org/2000/svg" width="436.354" height="583.354"><switch><g><path fill="#F7F7F7" d="M.677 485.341v79.148c0 10.044 6.492 18.188 14.5 18.188h406c8.008 0 14.5-8.144 14.5-18.188v-79.148h-435z"/><path fill="none" stroke="#231815" stroke-width="1.353" stroke-miterlimit="10" d="M435.677 564.489c0 10.044-6.492 18.188-14.5 18.188h-406c-8.008 0-14.5-8.144-14.5-18.188V18.864C.677 8.819 7.169.676 15.177.676h406c8.008 0 14.5 8.143 14.5 18.188v545.625z"/><text transform="translate(38.005 440.34)"><tspan x="0" y="0" fill="#231815" font-family="'FZLTZHUNHJW--GB1-0'" font-size="24">打开手机微</tspan><tspan x="120" y="0" fill="#231815" font-family="'FZLTZHUNHJW--GB1-0'" font-size="24" letter-spacing="6">信</tspan><tspan x="150" y="0" fill="#231815" font-family="'FZLTZHUNHJW--GB1-0'" font-size="24">APP</tspan><tspan x="204.75" y="0" fill="#231815" font-family="'FZLTZHUNHJW--GB1-0'" font-size="24" letter-spacing="6">,</tspan><tspan x="218.344" y="0" fill="#231815" font-family="'FZLTZHUNHJW--GB1-0'" font-size="24">扫码后关注我</tspan></text><text transform="translate(50.605 131.677)"><tspan x="0" y="0" fill="#50525A" font-family="'SourceHanSerifCN-Bold-GBpc-EUC-H'" font-size="22.6">品干</tspan><tspan x="45.2" y="0" fill="#50525A" font-family="'SourceHanSerifCN-Bold-GBpc-EUC-H'" font-size="22.6" letter-spacing="5">货,</tspan><tspan x="86.671" y="0" fill="#50525A" font-family="'SourceHanSerifCN-Bold-GBpc-EUC-H'" font-size="22.6">来我</tspan><tspan x="131.871" y="0" fill="#50525A" font-family="'SourceHanSerifCN-Bold-GBpc-EUC-H'" font-size="22.6" letter-spacing="5">家,</tspan><tspan x="173.343" y="0" fill="#50525A" font-family="'SourceHanSerifCN-Bold-GBpc-EUC-H'" font-size="22.6">我是干货分享</tspan><tspan x="308.939" y="0" fill="#50525A" font-family="'SourceHanSerifCN-Bold-GBpc-EUC-H'" font-size="22.6" letter-spacing="5">家</tspan><tspan x="337.189" y="0" fill="#50525A" font-family="'SourceHanSerifCN-Bold-GBpc-EUC-H'" font-size="22.6">!</tspan></text><text transform="translate(194.11 551.692)" fill="#5D5E5E" font-family="'MicrosoftYaHei'" font-size="46" letter-spacing="9">视频号</text><text transform="translate(122.777 75.357)" fill="#030000" font-family="'SourceHanSerifCN-Bold-GBpc-EUC-H'" font-size="36" letter-spacing="2">干货分享家</text><g><path fill="#FFF" d="M197.771 347.826h4.535v4.533h-4.535zM261.258 229.919h4.534v4.535h4.536v-4.535h4.535v-4.535h-4.535v-4.535h4.535v-4.535h-4.535v-9.07h-4.536v9.07h-4.534v4.535h-4.534v4.535h4.534zM224.979 261.663h4.535v-4.534H220.445v4.534zM188.7 248.059v9.07h4.535v4.534h4.536V252.594h-4.536v-9.071H188.7zM152.421 257.129h4.535v4.534h-4.535zM202.306 266.198h4.535v4.532h-4.535zM234.048 234.454h4.536v4.535h-4.536zM256.724 243.523h9.068V234.454h-9.068v4.535zM247.653 248.059h4.535v4.535h-4.535zM238.584 243.523h4.534v4.535h-4.534zM175.095 334.221h4.535V325.15h-4.535v4.538zM234.048 248.059h4.536v4.535h-4.536zM143.352 243.523h4.535v4.535h-4.535zM229.514 243.523h4.534v4.535h-4.534zM188.7 329.688h4.536v4.533H188.7zM170.561 238.989h4.535v4.534h-4.535zM143.352 220.849h4.535v4.535h-4.535zM152.421 220.849h4.535v4.535h-4.535zM138.816 225.384h4.535v4.535h-4.535zM143.352 338.756h-13.605V361.429h22.675V338.756h-9.07zm4.534 9.07V356.895h-13.605V343.29h13.605v4.536zM166.026 225.384h4.535v-4.535h-9.07v4.535zM138.816 252.594h4.535v4.535h-4.535zM138.816 243.523h4.536v-4.534H152.421v-4.535h4.535v-4.535h-4.535v-4.535h-4.535v4.535h-4.534v4.535h-4.536v4.535zM184.165 261.663h4.535v-4.534h-4.535v-9.07H170.56v9.07h-4.535v4.534h13.605v4.535h4.535v-4.535zm-4.535-4.534h-4.535v-4.535h4.535v4.535zM170.561 229.919h-9.07v4.535h4.535v4.535h4.535v-4.535zM138.816 207.244h13.605V184.57h-22.675v22.674h9.07zm-4.534-9.069V189.106h13.605v13.604h-13.605v-4.535zM156.956 238.989h-4.535v4.534h4.535v4.536h-4.535v4.535h4.535v4.535h4.535v-9.07h4.535v-9.07h-4.535zM184.165 225.384h-4.535v4.535h9.07v-4.535h4.535v4.535h4.536v-13.605h-4.536v-4.535H188.7v4.535h-4.535v4.535z"/><path fill="#FFF" d="M188.7 234.454h-13.605v4.535h4.535v4.534h9.07v-4.534h4.535v-4.535zM193.235 207.244v4.535h4.536v-4.535h4.535V198.175h-9.071v4.534zM202.306 207.244h4.535v4.535h-4.535zM270.328 266.198v4.532H279.397v-4.532h-4.534zM238.584 316.081h4.534v4.534h-4.534zM224.979 311.547h4.535v4.534h-4.535zM261.258 248.059h4.534v4.535h-4.534zM220.445 207.244h4.533v4.535h-4.533zM224.979 216.314h4.535v4.535h-4.535zM265.792 252.594h4.536v4.535h-4.536zM279.397 284.337h4.535v4.534h-4.535zM265.792 261.663h4.536v4.535h-4.536zM247.653 261.663h4.535v4.535h-4.535zM179.63 288.871h4.535v4.535h-4.535zM211.375 275.269h4.533v4.533h-4.533zM234.048 316.081h4.536V307.012h-4.536v4.535zM252.188 266.198h4.535v4.532h-4.535zM224.979 207.244h4.535v4.535h4.534v-9.07h-4.534v-4.534H220.445v4.534h4.534zM256.724 270.73h4.534v4.538h-4.534zM256.724 261.663h4.534v4.535h-4.534zM283.933 270.73h4.534v4.538h-4.534zM188.7 343.29V334.221h-9.07V343.29h-4.535v4.536h9.07v-4.536zM274.863 220.849h4.534v4.535h-4.534zM197.771 347.826v-13.605h-4.536V343.29H188.7v4.536h4.535zM193.235 356.896h4.535v4.534h-4.535zM279.397 225.384h4.535v4.535h-4.535zM252.188 207.244h-4.535v9.07h4.535v-4.535zM256.724 211.779h4.534v-13.604h-4.534v4.534h-4.536v4.535h4.536zM256.724 184.571h4.534v4.535h-4.534zM234.048 356.896v4.534h9.07v-4.534h-4.534zM234.048 189.105h-4.534v9.07h9.07v-4.535h-4.536zM175.095 343.29V334.221h-4.534v4.535h-4.535v9.07h4.535v-4.536z"/><path fill="#FFF" d="M270.328 284.337H279.397v-4.535H270.328v-9.072h-4.536v9.072h-13.604v-4.533h-4.535v-4.539H238.584v-4.532h4.534v-4.535h-4.534v-4.534h-4.536V266.198H224.979v4.532h-4.534v-9.067h-4.536v13.606h4.536v4.533h4.534v-4.533h18.139v4.533h4.535V288.871h4.535v-4.534h13.604v4.534h4.536zM283.933 279.802h4.534v4.535h-4.534zM193.235 266.198h4.535v4.532h-4.535zM274.863 238.989v-4.535h-4.535V243.523h-4.536v4.536h4.536v4.535h4.535V261.663h4.534v-18.14h-4.534zM229.514 343.29h4.534v4.536h-4.534zM261.258 257.129h4.534v4.534h-4.534zM147.886 297.941h4.535v4.535h-4.535zM265.792 320.615h4.536v4.535h-4.536zM152.421 311.547h4.535v4.534h-4.535zM288.467 356.896h4.536v4.534h-4.536zM138.816 311.547h4.535v4.534h-4.535zM147.886 288.871h4.535v4.535h-4.535zM134.282 293.406h4.535v4.535h-4.535zM293.003 343.29v4.536h9.07v-9.07h-4.537v-4.535h-4.533v4.535zM302.073 334.221h4.533v4.535h-4.533zM156.956 316.081h4.536v4.534h-4.536zM243.118 311.547h4.535v4.534h-4.535zM265.792 352.359h4.536v4.536h-4.536z"/><path fill="#FFF" d="M252.188 293.406h-4.535v4.535h-4.535v-4.535h4.535v-4.535H234.048v4.535h-4.534v4.535h-4.535v-9.07h4.535v-4.534h9.07v-4.535h-13.605v4.535h-4.534v-4.535h-4.536v4.535h-4.534V293.406h4.534v4.535h4.536v4.536h4.534v4.535H234.048v-9.071h4.536v9.071h4.534v-4.535h9.07v-4.536zM224.979 320.615v-4.534h-9.07v4.534h4.536z"/><path fill="#FFF" d="M206.84 311.547v-4.535h4.535V316.081h4.534v-4.534h9.07v-4.535h-9.07v-9.071h-4.534v-4.535h-4.535V284.337h4.535v-4.535h-4.535v-4.533h-4.534v4.533h-9.071v4.535H188.7V293.406h9.071v-4.535h4.535v4.535h-4.535v4.535h-4.536v4.536h4.536v9.07h4.535v4.534h4.534zM270.328 347.826h4.535v4.533h-4.535zM166.026 307.012v-4.535h-4.535v9.07h9.07v-4.535zM184.165 293.406h4.535v4.535h-4.535zM274.863 361.43h4.534v-4.534h4.536v-4.537h4.534v-4.533h-9.07v4.533h-4.534v4.537zM138.816 297.941h4.535v4.535h-4.535zM211.375 329.688h4.533v4.533h-4.533zM170.561 284.337v4.534H179.63v-4.534h-4.535zM147.886 307.012h4.535v4.535h-4.535zM166.026 302.477h4.535v-4.536h4.534v-4.535H166.026v4.535zM297.536 184.571H283.933v22.674H306.606v-22.674h-9.07zm4.537 9.069v9.07h-13.606v-13.604H302.073v4.534zM143.352 293.406h4.535v4.535h-4.535zM152.421 302.477h4.535v4.535h-4.535zM143.352 302.477h4.535v4.535h-4.535zM279.397 329.688h-4.534v13.602H288.466v-13.602H279.397zm4.536 9.068h-4.535v-4.535h4.535v4.535z"/><path fill="#FFF" d="M120.677 175.5v195h195v-195h-195zm40.814 31.744h4.535v4.535h-4.535v-4.535zm-36.279 0v-27.209h31.745v31.744h-31.745v-4.535zm0 117.906h4.535v-4.535h-4.535v-4.534h4.535v4.534h4.535v4.535h4.535v4.537h-4.535v-4.537h-4.535v4.537h-4.535v-4.537zm31.744 13.606V365.965h-31.745V334.221h31.745v4.535zm54.419 13.603h-4.535v9.07h4.535v4.536H188.7v-9.07h4.536v-4.536H188.7v-4.533h-4.535v4.533h-9.07v-4.533h-4.535V356.895h9.07v9.07h-4.535v-4.536h-4.535v4.536h-4.535v-4.536h4.535v-4.534h-9.07v-4.536h4.535v-4.533h-4.535v-9.07h4.535v-4.535h-4.535v-4.533h4.535v4.533h4.535v-9.07h4.535v-4.535h9.07v9.072h4.535v-9.072h4.536v4.535h9.07v4.537h-4.535v4.533h4.535v4.535h4.535v9.07h4.535v4.533zm-27.21-40.812v-4.535h4.535v4.535h-4.535zm126.978 9.068H297.537v4.535h-4.533v4.537H311.143v13.602h-4.536v4.536h4.536V356.894h-4.536v4.534h4.536v4.536H302.074v-9.07h4.533v-4.536h-9.07v9.07h-4.533v4.536H270.33v-4.536h-9.07v4.536h-4.534v-4.536h-4.535v-9.07h-4.535v-4.533h4.535v-9.07h-9.07v-4.535h9.07v-4.533h4.535v4.533h4.534v4.535h-4.534V356.894h4.534v-4.536h4.534v-4.533h4.536v-4.536h-4.536v-13.602h-4.534v-9.072h-4.534v-9.068h4.534v4.534h4.534V307.012h-9.068v-4.535h-4.535v13.604h-4.535v4.534h4.535v4.535h-22.674v9.07h4.534v-4.533h4.536V338.755h-4.536v4.534h9.07V356.894h4.535v4.534h-4.535v4.536h-18.139v-4.536h4.535v-4.534H220.449v9.07h-4.537v-9.07h4.537v-4.536h4.533V338.755h4.535v-4.535h-4.535v-4.533h-4.533v4.533h-4.537v4.535h4.537v9.07h-4.537v-4.536h-4.533V334.22h-4.535v-9.07H215.912v-4.535H202.309v-4.534h-4.535v-4.534h-4.535v-9.07h-9.074v-4.535h-4.535v9.07h-4.535v4.535h-4.535v9.068h-4.535v4.535h-9.071v4.537h-4.535v-4.537h4.535v-4.535h-4.535v-4.534h-4.535V329.687h-4.535v-9.072h-4.535v-4.534h-4.535v-18.139h-4.535v9.07h-4.535v-13.605h4.535v-4.535h18.14v-4.534h-9.07v-4.535h-9.07v4.535h-4.535v-4.535h4.535v-4.533h13.605v4.533h13.605v4.535h-4.535v4.534h4.535v4.535h-4.535v4.535h4.535v4.535h4.536v-9.07h4.535v-4.535h-4.535v-4.534h4.535V275.27h13.605V284.338h4.535V275.27h4.535v-4.538h-9.07V266.2H147.884v4.532h-4.535V266.2h4.535V257.131h-4.535v4.534h-13.605V252.596h4.535v-18.139h4.535v-4.535h-9.07v4.535h-4.535v-4.535h4.535v-4.535h-4.535v-4.535h4.535v4.535h9.07v-4.535h-4.535v-4.535h4.535v4.535h4.535v-4.535h13.605v4.535h4.536v-4.535h13.605v4.535h4.535v-4.535h4.535v-4.535h-4.535v-9.07h-9.07v-9.07h-4.535v4.535h-4.535v-4.535h4.535v-4.534h4.535v4.534h13.605v18.14h4.535v-13.605h4.536v-4.535H188.7v-4.534h-4.535v-4.535h-4.535v4.535h-4.535v-4.535H161.49v-4.535h27.21v9.07h4.536v-4.535h4.535v-4.535h9.07v4.535h-9.07v4.535h4.535V198.177h4.535v-4.535h4.535v-4.534h4.533v4.534h-4.533v4.535h-4.535v9.07h4.535v9.07h-4.535v4.535h-4.535v9.07h-4.535v4.535h4.535v4.535h-9.07v4.534h4.535v4.535h4.535v-4.535h4.535v9.07h-4.535V261.665h4.535v4.535h4.535V257.131h9.07v-4.535H229.514v-4.535h-4.535v-4.535h4.535v-4.534h-4.535v-9.07h4.535v4.535h4.534v-4.535h9.07v13.604h4.535v-13.604h4.535v4.535h4.535v-9.07h-4.535v-4.535h-4.535v4.535h-4.535v-22.675h-4.534v13.605h-4.536v4.535h4.536v4.535h-4.536v-4.535h-4.534v4.535h-4.535v-4.535h-4.533v4.535h-9.07v-4.535h9.07v-9.07h-4.537v-4.535h4.537v-4.535h-4.537v-4.535h4.537v-13.604h-4.537v-4.535h13.605v4.535h4.534v-4.535h4.536v4.535h4.534v-4.535h4.535v4.535h-4.535v4.535h-4.534v4.534h4.534v9.07h4.535v-13.604h4.535v-9.07H265.791v4.535h9.071V193.642h-9.071v4.535h9.071v4.535h-4.535v4.535h4.535v9.07h4.534v4.535H288.465v9.07h-4.534v4.535h-4.535V243.526H288.465v13.605h-4.534v4.534h-4.535v4.535H288.465v-4.535H297.534v4.535H288.465v4.532h4.536v4.538h-4.536v4.533h4.536v4.535h-4.536v13.604h4.536v4.535h-4.536v-4.535h-4.534v4.535h-4.535v-9.07H265.791v-4.535h-4.534v4.535h-4.534v9.07h9.068v4.535h4.536v-4.535h4.535V320.615H283.931v4.535h4.534v-4.535h4.536v-13.603h4.533V316.081h4.537v-4.534h4.533v4.534h4.536v4.534zM134.282 270.73v-4.532h4.535v4.532h-4.535zm18.139 4.539v-4.538h9.071v4.538h-9.071zm18.14-63.49v-4.535h4.535v4.535h-4.535zm45.348 22.675v4.535h4.537V248.058h-4.537v4.535h-4.533v-4.535h4.533v-4.535h-4.533v-4.534h-4.535v-9.07h4.535v4.535h4.533zm77.094 22.675v-4.535h4.533v4.535h-4.533zm-9.07 49.883v4.535h-4.535v-4.535h4.535zm27.21-58.953v22.671h-4.536v4.538h4.536V284.336h-4.536v4.534h4.536v4.535h-4.536v4.535h-4.533v4.535h4.533v4.535h-4.533v-4.535h-4.537v-4.535h4.537v-9.07h-4.537v-18.14h4.537v-9.067h4.533v-4.534h-4.533v-4.535h4.533v-4.535H293.004v-13.604h4.533V243.524h13.606v4.535zm0-27.21h-4.536v4.535h4.536v4.535h-4.536v4.535h4.536v4.535h-4.536v-4.535h-4.533v-4.535h-4.537v-4.535h-4.533v-9.07h4.533v4.535h9.07v-4.535h4.536v4.535zm0-36.278v27.209H279.399v-31.744h31.744v4.535z"/><path fill="#040000" d="M188.7 180.036h-27.209v4.535h13.604v4.534h4.535v-4.534h4.535v4.534h4.535v-4.534zM206.84 184.571v-4.535H197.771v4.535h4.535zM243.118 180.036h4.535v4.535h-4.535zM302.073 180.036h-22.675v31.744h31.744v-31.744H302.073zm4.533 9.069v18.139H283.933V184.57H306.606v4.535zM166.026 189.105h4.535v4.534h-4.535zM211.375 189.105h4.533v4.534h-4.533z"/><path fill="#040000" d="M293.003 189.105h-4.536v13.604H302.073v-13.604h-4.537zM161.491 193.64h4.535v4.535h-4.535zM202.306 198.175v-9.07h-4.535v-4.534h-4.536v4.534H188.7v4.535h4.535v4.535h4.536zM206.84 193.64h4.535v4.535h-4.535zM229.514 198.175v-9.07h4.534v4.535h4.536v-4.535h4.534v-4.534h-4.534v-4.535h-4.536v4.535h-4.534v-4.535H215.909v4.535h4.536v13.604h4.534z"/><path fill="#040000" d="M243.118 193.64h-4.534v4.535h-9.07v4.534h4.534v9.07h-4.534v-4.535h-4.535v4.535h-4.534v9.07h4.534v-4.535h4.535v4.535h4.534v-4.535h4.536v-13.605h4.534v-4.534zM143.352 202.709h4.534v-13.604h-13.604v13.604h4.534zM215.909 198.175h4.537v4.535h-4.537zM184.165 202.709V193.64h-13.604V202.709H179.63v9.07h4.535v-4.535zM202.306 207.244h4.534V198.175h-4.534v4.534z"/><path fill="#040000" d="M220.445 202.709h4.533v4.535h-4.533zM134.282 211.779h22.675v-31.744h-31.745v31.744h9.07zm-4.535-9.07V184.57h22.675v22.674h-22.675v-4.535zM161.491 207.244h4.535v4.535h-4.535zM170.561 207.244h4.535v4.535h-4.535zM193.235 207.244V198.175H188.7v13.604h4.535zM215.909 207.244h4.537v4.535h-4.537zM184.165 211.779h4.535v4.535h-4.535zM202.306 211.779v-4.535h-4.535v4.535h-4.536v4.535h4.536v13.605h4.535v-9.07h4.534v-4.535h4.535v-9.07h-4.535v4.535zM270.328 216.314h4.535v-9.07h-4.535v4.535zM134.282 216.314h4.535v4.535h-4.535z"/><path fill="#040000" d="M261.258 220.849v-4.535h4.534v-9.07h4.536v-4.535h4.535v-4.535h-9.071v-4.535h9.071V184.57h-9.071v-4.535h-13.603v9.07h-4.535v13.604h-4.535v22.675h4.535v-4.535h4.535v4.535h4.535v-4.535h4.534zm-4.534-36.278h4.534v4.535h-4.534v-4.535zm-9.071 31.743v-9.07h4.535v-4.535h4.535v-4.535h4.534v13.605h-4.534v-4.535h-4.535v9.07h-4.535zM274.863 216.314h4.534v4.535h-4.534zM306.606 216.314h4.536v4.535h-4.536zM125.212 220.849h4.535v4.535h-4.535zM138.816 220.849h4.535v4.535h-4.535zM147.886 225.384h4.535v-4.535h4.535v-4.535h-13.604v4.535h4.534zM211.375 220.849v4.535h9.07v-4.535h-4.536zM224.979 220.849h4.535v4.535h-4.535zM234.048 220.849h4.536v4.535h-4.536zM270.328 220.849h4.535v4.535h-4.535zM283.933 225.384v4.535h4.534v-9.07h-9.07v4.535zM297.536 220.849v-4.535h-4.533v9.07h4.533v4.535h4.537v4.535h4.533v-4.535h4.537v-4.535h-4.537v-4.535h-4.533zM134.282 225.384h-4.535v4.535H138.816v-4.535zM143.352 225.384h4.535v4.535h-4.535z"/><path fill="#040000" d="M152.421 225.384v4.535h4.535v4.535h-4.535v4.535h13.605v-4.535h-4.535v-4.535h9.07v9.07h4.534v-4.535h18.14v4.535h9.071v-4.535h-4.535v-4.535h-4.536v-4.535H188.7v4.535h-9.07v-4.535h4.535v-9.07h-4.535v4.535h-4.535v-4.535h-13.604v4.535h9.07v4.535h-9.07v-4.535h-4.535v4.535zM279.397 225.384h-4.534v4.535h-4.535v4.535h4.535V243.523h4.534V234.454h4.536v-4.535h-4.536zM125.212 229.919h4.535v4.535h-4.535zM138.816 229.919h4.535v4.535h-4.535zM206.84 229.919v9.07h4.535v4.534h4.534v4.536h4.536v-9.07h-4.536v-4.535h-4.534v-4.535zM265.792 234.454v-4.535h-4.534v-4.535h-4.534v9.07h4.534zM306.606 234.454h4.536v4.535h-4.536zM188.7 238.989h4.536v4.534H188.7zM270.328 238.989v-4.535h-4.536V243.523h4.536zM224.979 243.523h4.535v4.535h-4.535z"/><path fill="#040000" d="M234.048 248.059h4.536v-4.536h4.534v-13.604h-9.07v4.535h4.536v4.535h-4.536v-4.535h-4.534v-4.535h-4.535v9.07h4.535v4.534h4.534zM302.073 243.523h-4.537V234.454h-4.533V248.059H306.606v4.535h-4.533v4.535h4.533v4.534h-4.533v9.067h-4.537v18.141h4.537v9.07h4.533v-4.535h4.537v-4.535h-4.537v-4.534h4.537V275.269h-4.537v-4.539h4.537v-27.207h-4.537zM211.375 248.059h4.533v4.535h-4.533zM265.792 248.059h4.536v4.535h-4.536zM279.397 252.594V261.663h4.536v-4.534h4.534v-13.606h-9.07v4.536zM175.095 252.594h4.535v4.535h-4.535z"/><path fill="#040000" d="M229.514 257.129v4.534H220.446v9.067h4.533v-4.532H234.048V257.129h4.536v4.534h4.534v4.535h-4.534v4.532H247.653v4.538h4.535v4.533H265.791V270.73h4.536v-4.532h-4.536v-4.535h-4.534v4.535h-4.534v4.532h4.534v4.538h-4.534v-4.538h-4.535v-4.532h-4.535v-4.535h4.535v4.535h4.535v-4.535h4.534v-4.534h4.534v-4.535h-4.534v-4.535h4.534v-4.535h-9.068V234.455h-4.535v-4.535h-4.535v13.604h-4.535v4.535h-4.534v4.535h-4.536v-4.535h-4.534v4.535H220.446v4.535H229.514zm22.674-9.07v4.535h-4.535v-4.535h4.535zM293.003 252.594h4.533v4.535h-4.533z"/><path fill="#040000" d="M274.863 257.129v-4.535h-4.535v4.535h-4.536v4.534h4.536v4.535H279.397v-4.535h-4.534zM175.095 261.663H166.026v-4.534h4.535v-9.07h13.604v9.07h4.535v-13.606h-9.07v-4.534h-4.535v4.534h-4.534v-4.534h-4.535v9.07h-4.535v9.07h-4.535v4.534h-4.535v-4.534h4.535v-4.535h-4.535v-4.535h4.535v-4.536h-4.535v-4.534H143.352v4.534h4.534v4.536h-4.534v-4.536h-4.536V234.454h-4.534v18.14h-4.535V261.663H143.352v-4.534h-4.536v-4.535h4.536v4.535h4.534V266.198h31.744v-4.535zM297.536 266.198v-4.535H288.467v4.535h4.536zM134.282 266.198h4.535v4.532h-4.535zM143.352 266.198h4.535v4.532h-4.535zM161.491 275.269v-4.539h-9.07v4.539h4.535zM274.863 270.73h-4.535v9.072H279.397v4.535h4.536v-4.535h4.534v-4.533h-4.534v-4.539h4.534v-4.532h-9.07v4.532zM288.467 270.73h4.536v4.538h-4.536zM215.909 275.269h4.537v4.533h-4.537zM125.212 279.802h4.535v4.535h-4.535zM211.375 279.802h4.533v4.535h-4.533zM220.445 279.802h4.533v4.535h-4.533zM247.653 279.802h-4.535v-4.533h-18.139v4.533H238.584v4.535h-9.07v4.534h-4.535v9.07h4.535v-4.535h4.534v-4.535h13.605v-4.534zM288.467 279.802h4.536v4.535h-4.536zM152.421 284.337h4.535v-4.535h-13.604v-4.533h-13.605v4.533H138.816v4.535h9.07v4.534h4.535z"/><path fill="#040000" d="M184.165 288.871v4.535h4.535V284.337h4.536v-4.535h9.07v-4.533h4.535v4.533h4.535v-4.533h4.533v-13.605h4.537v-4.534h-9.07V266.199h-4.535v4.532h-4.535v-4.532h4.535v-4.535h-4.535V252.595h4.535v-9.07h-4.535v4.535h-4.535v-4.535h-4.535v9.07h4.535V261.664h-4.535v-4.534H188.7v4.534h-4.535v4.535h-4.535v4.532h9.07v4.538h-4.535V284.337h-4.535v4.534h4.535zm9.07-22.673h4.535v4.532h-4.535v-4.532zM206.84 288.871v4.535h4.535V284.337h-4.535zM283.933 288.871h-4.536v-4.534H270.328v4.534h-4.536v4.535h13.605v9.071h4.536v-4.536h4.534v-13.604h-4.534zM138.816 293.406v4.535h4.536v-4.535h4.534v-4.535h-18.139v4.535h-4.535v13.606h4.535v-9.071h4.535v-4.535zM152.421 288.871h4.535v4.535h-4.535zM197.771 288.871h4.535v4.535h-4.535zM147.886 293.406h4.535v4.535h-4.535z"/><path fill="#040000" d="M179.63 293.406v-4.535H170.561v-4.534H179.63V275.269h-13.604V284.337h-4.535v4.534h4.535v4.535H175.095v4.535h-4.534v4.536h-4.535v4.535h4.535v4.535h4.534v-4.535h4.535v-9.071h4.535v-4.535zM197.771 297.941v-4.535H188.7v4.535h-4.535v4.536h9.07v-4.536zM211.375 293.406h4.533v4.535h-4.533zM243.118 293.406h4.535v4.535h-4.535zM256.724 293.406h4.534v-4.535h4.534v-4.534h-13.604v4.534h-4.535v4.535h4.535v9.071h4.536v-4.536zM143.352 297.941h4.535v4.535h-4.535zM152.421 297.941h4.535v4.535h-4.535z"/><path fill="#040000" d="M166.026 297.941v-4.535h-4.535v9.071h4.535zM288.467 297.941h4.536v4.535h-4.536zM297.536 297.941h4.537v4.535h-4.537zM147.886 302.477h4.535v4.535h-4.535zM197.771 302.477h-4.536v9.07h4.536v-4.535zM215.909 307.012h9.07v-4.535h-4.534v-4.536h-4.536v4.536zM238.584 302.477v-4.536h-4.536v9.071h4.536zM243.118 302.477v4.535h-4.534V316.081h4.534v-4.534h4.535v4.534h4.535v-13.604h-4.535zM261.258 302.477h-4.534v4.535h9.068v-4.535zM302.073 302.477h4.533v4.535h-4.533zM184.165 307.012h4.535v4.535h-4.535zM279.397 307.012h4.535v4.535h-4.535z"/><path fill="#040000" d="M147.886 311.547v-4.535h-4.534v-4.535h-4.536v-4.536h-4.534v18.14h4.534v-4.534h4.536v4.534h-4.536v4.534h4.536v9.073h4.534v-13.607h4.535v-4.534zM161.491 311.547v-9.07h-4.535v4.535h-4.535v4.535h4.535v4.534h4.535v4.534h-4.535v4.535h9.07v-4.535h4.535v-9.068h-4.535zM197.771 311.547h4.535v4.534h-4.535zM215.909 311.547v4.534h9.07v-4.534h-4.534zM306.606 311.547h-4.533v4.534h-4.537V307.012h-4.533V320.615h-4.536v4.535h-4.534v-4.535H274.864V302.477h-4.535v4.535h-4.536V316.081h-4.534v-4.534h-4.534v9.068h4.534v9.072h4.534v13.602h4.536v4.536h4.535v4.533h4.534v-4.533H288.467v4.533h-4.534v4.536h-4.535v4.534h-4.534v-9.07h-4.535v4.536h-4.536v-4.536h-4.534v4.536h-4.534v-18.139h4.534v-4.535h-4.534v-4.533h-4.535v4.533h-9.07v4.535h9.07v9.07h-4.535v4.533h4.535v9.07h4.535v4.536h4.534v-4.536h9.07v4.536h22.674v-4.536h-4.536v-4.534h4.536v4.534h4.533v-9.07h9.07v4.536h4.536V347.825h-4.536v-4.536h4.536v-13.602h-18.139v-4.537h4.533v-4.535h13.606v-4.534h-4.536v-4.534zm-40.814 9.068h4.536v4.535h-4.536v-4.535zm31.744 13.606v4.535h4.537v-4.535h4.533v4.535h-4.533v9.07h-9.07v-13.605h4.533zm-9.069 0V343.29H274.864v-13.602H288.467v4.533zM125.212 316.081h4.535v4.534h-4.535z"/><path fill="#040000" d="M152.421 316.081h4.535v4.534h-4.535zM211.375 316.081V307.012h-4.535V316.081h-4.534v4.534H215.909v-4.534z"/><path fill="#040000" d="M243.118 320.615h-4.534v-4.534h-4.536V307.012H224.979v4.535h4.535v4.534h-4.535v4.534h-9.07v4.535H206.84V334.221h4.535v-4.533h4.534v4.533h4.536v-4.533h4.534v4.533h4.535V325.15h22.674v-4.535h-4.535v-4.534h-4.535zM129.747 320.615h4.535v4.535h-4.535zM125.212 325.15h4.535v4.537h-4.535zM134.282 325.15h4.535v4.537h-4.535zM152.421 325.15h4.535v4.537h-4.535zM179.63 329.688v4.533h9.07v-4.533h-4.535v-9.073h-9.07v4.535h4.535zM161.491 329.688h4.535v4.533h-4.535zM175.095 329.688v-4.538h-4.534V334.221h4.534zM193.235 334.221h4.536v-4.533h4.535v-4.538h-9.071v-4.535H188.7v9.073h4.535zM147.886 334.221h-22.675v31.744h31.745V334.221h-9.07zm4.535 9.069v18.139h-22.675V338.756h22.675v4.534zM166.026 334.221h4.535v4.535h-4.535zM175.095 338.756v4.534h4.535V334.221h-4.535zM188.7 338.756v4.534h4.535V334.221H188.7z"/><path fill="#040000" d="M211.375 338.756v4.534h4.534v4.536h4.536v-9.07h-4.536v-4.535h-4.534zM279.397 334.221h4.535v4.535h-4.535zM166.026 338.756h-4.535v9.07h4.535v-4.536zM224.979 338.756V352.359h-4.534v4.537H229.514v4.534h-4.535v4.536h18.139v-4.536h-9.07v-4.534h9.07V343.29h-9.07v4.536h-4.534v-4.536h4.534v-4.534h4.536V329.688h-4.536v4.533h-4.534v4.535zM138.816 343.29h-4.534V356.896h13.604V343.29h-4.534zM170.561 343.29h4.535v4.536h-4.535zM184.165 343.29h4.535v4.536h-4.535zM206.84 343.29v-4.534h-4.534v-4.535h-4.535V347.826h4.535v4.533h-4.535v-4.533H188.7v4.533h4.535v4.537h4.536v4.534h-4.536v-4.534H188.7v9.07h22.675v-4.536h-4.535v-9.071h4.535v-4.533h-4.535zM166.026 352.359h-4.535v4.537h9.07v-9.07h-4.535zM175.095 347.826v4.533h9.07v-4.533h-4.535zM265.792 347.826h4.536v4.533h-4.536zM175.095 361.43v4.536h4.535v-9.07H170.561v4.534zM215.909 361.43v4.536h4.536v-9.07h-4.536z"/><path fill="#040000" d="M243.118 356.896h4.535v4.534h-4.535zM302.073 361.43v4.536h9.07v-4.536h-4.537v-4.534h-4.533zM166.026 361.43h4.535v4.536h-4.535z"/></g><g><circle fill="#FFF" cx="218.177" cy="273.677" r="36.431"/><path fill="none" stroke="#030000" stroke-width="2.857" stroke-linecap="round" stroke-miterlimit="10" d="M235.851 282.628c-.701-8.991-8.218-16.068-17.389-16.068-9.17 0-16.688 7.078-17.39 16.068"/><path fill="#030000" d="M220.822 302.507a16.585 16.585 0 0 1-8.074-2.303l-.168-.106c-.21-.159-5.369-3.826-14.521-1.854a1.451 1.451 0 0 1-1.371-.373 1.269 1.269 0 0 1-.314-1.314 1.382 1.382 0 0 1 1.069-.894c9.952-2.145 15.964 1.722 16.82 2.291 6.266 3.442 10.036 1.191 10.189 1.099l.126-.065 10.051-5.071c3.14-1.456 3.841-2.396 3.952-2.583.1-.463 0-.78-.111-.939a5.21 5.21 0 0 0-3.351-.291l-10.498 4.144c-.173.07-.358.106-.547.107h-10.779c-.774 0-1.401-.594-1.401-1.325s.627-1.323 1.401-1.323h8.549c1.318-.173 1.725-.517 1.781-.636.056-.119-.14-.648-.379-.979-11.857-5.693-26.295.105-26.436.172-.698.248-1.479-.064-1.777-.709-.298-.646-.01-1.397.656-1.714.645-.265 16.008-6.461 29.127 0 .153.077.293.18.407.305a4.845 4.845 0 0 1 1.189 2.476l7.725-3.045.252-.08c.688-.132 4.205-.729 6.013.967.88.854 1.23 2.074.926 3.229-.084 1.021-1.163 2.584-5.452 4.569l-9.952 5.031a10.272 10.272 0 0 1-5.102 1.214zm0 0M229.634 255.688c.136-1.079.261-2.331.135-3.69-.328-3.657-2.364-6.085-5.091-7.453-1.859-.933-4.04-1.373-6.217-1.373-1.91 0-3.822.339-5.519 1.053-3.071 1.292-5.433 3.81-5.788 7.773a8.584 8.584 0 0 0 0 1.62c.065.685.148 1.354.246 1.986a.92.92 0 0 0-.126.021c-.794.196-1.155 1.504-.805 2.922.349 1.417 1.275 2.408 2.07 2.213h.001c1.275 4.273 5.241 7.398 9.923 7.398 4.674 0 8.636-3.115 9.917-7.379.768.089 1.631-.875 1.965-2.231.305-1.24.068-2.395-.526-2.797-.026-.018-.08-.059-.185-.063z"/><path fill="#FFF" d="M227.03 260.822a9.704 9.704 0 0 0 .422-1.699c.63-3.147.231-5.488-.141-6.444l-.002-.002c-.112-.354-.266-.639-.471-.828a.94.94 0 0 0-.533-.247 1.22 1.22 0 0 0-.338.013c-3.785.675-10.203-1.917-12.187-2.777-.384-.167-.602-.268-.602-.268s-.043.292-.181.714c-.246.75-.791 1.911-1.932 2.576-1.868 1.093-1.981 3.272-1.808 5.18.067.899.104 1.18.263 2.19.054.338.105.632.146.813.913 4.083 4.486 7.129 8.755 7.129 3.976 0 7.34-2.715 8.604-6.346v.001c.003-.001.004-.003.005-.005z"/><path fill="#030000" d="M215.494 255.831c0 .918-.706 1.695-1.554 1.695-.848 0-1.554-.707-1.554-1.695 0-.918.706-1.696 1.554-1.696.848 0 1.554.778 1.554 1.696M225.255 255.831c0 .918-.706 1.695-1.555 1.695-.848 0-1.554-.707-1.554-1.695 0-.918.706-1.696 1.554-1.696.849 0 1.555.778 1.555 1.696"/><path fill="#FFF" d="M223.798 255.399c0 .255-.256.596-.597.596s-.596-.256-.596-.596c0-.341.255-.596.596-.596.341.085.597.34.597.596"/><path fill="#231815" d="M222.026 261.686h-6.508c-.318 0-.55.248-.507.522.133.75.538 1.417 1.119 1.918a1.468 1.468 0 0 1 1.449-1.334c.5 0 .935.247 1.193.626a1.48 1.48 0 0 1 1.193-.626c.752 0 1.377.585 1.449 1.334.58-.502.985-1.169 1.118-1.918.044-.274-.187-.522-.506-.522z"/><g fill="#E50012"><path d="M222.705 280.546l-2.337-10.2a.295.295 0 0 0-.296-.237h-2.66a.296.296 0 0 0-.296.237l-2.188 10.171a.296.296 0 0 0 .119.296l3.429 2.631a.294.294 0 0 0 .354 0l.128-.104.138.104c.105.079.25.079.355 0l3.163-2.602a.298.298 0 0 0 .091-.296zM216.673 269.666a.293.293 0 0 0 .236.118h.57c.017.001.034.002.05 0H220.485a.289.289 0 0 0 .236-.118l.917-1.242a.294.294 0 0 0-.059-.414l-.177-.059H216.138c-.112 0-.214.063-.264.164s-.039.22.027.31l.772 1.241zM221.415 264.126a1.467 1.467 0 0 0-1.449-1.334 1.48 1.48 0 0 0-1.193.626 1.434 1.434 0 0 0-1.193-.626 1.47 1.47 0 0 0-1.449 1.334 4.031 4.031 0 0 0 2.642.957 4.028 4.028 0 0 0 2.642-.957z"/></g><path fill="#FFF" d="M214.067 255.348c0 .255-.256.596-.596.596s-.596-.256-.596-.596c0-.341.256-.597.596-.597.34.085.596.341.596.597"/><g><path fill="none" d="M123.156 533.906a210.226 210.226 0 0 0-7.642-12.013 111.702 111.702 0 0 0-6.766-8.956c-3.349-3.932-6.272-6.492-8.471-7.383-1.792-.728-2.718-.309-3.675 2.087-1.668 4.181-.969 14.718 1.51 26.544l.578 2.646.637 2.678c3.128 12.646 7.626 22.745 9.117 22.745 1.022 0 3.25-1.848 5.902-5.247a79.616 79.616 0 0 0 4.682-6.812 148.076 148.076 0 0 0 3.883-6.636l1.517-2.802 1.273-2.454-1.333-2.33-1.212-2.067zM156.379 505.555c-2.2.888-5.125 3.451-8.471 7.383a111.702 111.702 0 0 0-6.766 8.956 202.665 202.665 0 0 0-6.167 9.555l-2.097 3.511-1.926 3.349.662 1.277.897 1.699a155.53 155.53 0 0 0 5.117 8.914 79.416 79.416 0 0 0 4.681 6.81c2.653 3.399 4.88 5.251 5.902 5.251 1.491 0 5.989-10.103 9.117-22.749l.637-2.678c2.939-12.876 3.883-24.699 2.088-29.19-.956-2.394-1.882-2.816-3.674-2.088z"/><path fill="#F19B43" d="M164.387 505.936c-1.892-4.733-5.523-6.38-9.77-4.665-3.078 1.245-6.474 4.225-10.27 8.686a116.066 116.066 0 0 0-7.058 9.328l-1.606 2.38a225.567 225.567 0 0 0-6.204 9.899l-1.152 1.97-1.153-1.97a214.603 214.603 0 0 0-7.81-12.279 115.421 115.421 0 0 0-7.058-9.328c-3.796-4.461-7.194-7.44-10.27-8.686-4.247-1.715-7.875-.068-9.77 4.665-5.088 12.739 6.825 60.945 16.175 60.945 3.026 0 6.054-2.52 9.586-7.043a84.085 84.085 0 0 0 4.961-7.213c1.858-3 3.618-6.061 5.274-9.177l.063-.117 1.335 2.46a150.884 150.884 0 0 0 4.001 6.834 84.231 84.231 0 0 0 4.96 7.213c3.529 4.526 6.561 7.043 9.586 7.043 9.356 0 21.269-48.206 16.18-60.945zm-39.96 34.823l-1.517 2.802a148.076 148.076 0 0 1-3.883 6.636 79.388 79.388 0 0 1-4.682 6.812c-2.652 3.399-4.879 5.247-5.902 5.247-1.491 0-5.989-10.099-9.117-22.745l-.637-2.678-.578-2.646c-2.479-11.826-3.178-22.363-1.51-26.544.957-2.396 1.883-2.814 3.675-2.087 2.199.891 5.122 3.451 8.471 7.383a111.702 111.702 0 0 1 6.766 8.956 211.335 211.335 0 0 1 7.642 12.013l1.211 2.068 1.333 2.33-1.272 2.453zm33.539-3.927l-.637 2.678c-3.128 12.646-7.626 22.749-9.117 22.749-1.022 0-3.249-1.852-5.902-5.251a79.645 79.645 0 0 1-4.681-6.81 156.127 156.127 0 0 1-5.117-8.914l-.897-1.699-.662-1.277 1.926-3.349 2.097-3.511a202.381 202.381 0 0 1 6.167-9.555 111.702 111.702 0 0 1 6.766-8.956c3.346-3.932 6.271-6.495 8.471-7.383 1.792-.728 2.718-.306 3.675 2.087 1.794 4.492.85 16.315-2.089 29.191z"/></g></g></g></switch></svg>